<svg width="76" height="74" viewBox="0 0 76 74" fill="none" xmlns="http://www.w3.org/2000/svg">
<path d="M34.4971 57.1189C34.4971 57.0084 34.5866 56.9189 34.6971 56.9189H36.7783C36.8888 56.9189 36.9783 56.8293 36.9783 56.7189V36.046C36.9783 35.9355 36.8888 35.846 36.7783 35.846H34.6971C34.5866 35.846 34.4971 35.7564 34.4971 35.646V34.2031C34.4971 34.0926 34.5866 34.0031 34.6971 34.0031H41.7409C41.8513 34.0031 41.9409 34.0926 41.9409 34.2031V35.646C41.9409 35.7564 41.8513 35.846 41.7409 35.846H39.6596C39.5491 35.846 39.4596 35.9355 39.4596 36.046V56.7189C39.4596 56.8293 39.5491 56.9189 39.6596 56.9189H41.7409C41.8513 56.9189 41.9409 57.0084 41.9409 57.1189V58.8854C41.9409 58.9959 41.8513 59.0854 41.7409 59.0854H34.6971C34.5866 59.0854 34.4971 58.9959 34.4971 58.8854V57.1189Z" fill="black"/>
<path fill-rule="evenodd" clip-rule="evenodd" d="M34.0115 56.5007C34.0115 56.3902 34.101 56.3007 34.2115 56.3007H36.2008C36.3113 56.3007 36.4008 56.2111 36.4008 56.1007V36.6643C36.4008 36.5538 36.3113 36.4643 36.2008 36.4643H34.2115C34.101 36.4643 34.0115 36.3747 34.0115 36.2643V33.5558C34.0115 33.4454 34.101 33.3558 34.2115 33.3558H42.2262C42.3367 33.3558 42.4262 33.4454 42.4262 33.5558V36.2643C42.4262 36.3747 42.3367 36.4643 42.2262 36.4643H40.2368C40.1264 36.4643 40.0368 36.5538 40.0368 36.6643V56.1007C40.0368 56.2111 40.1264 56.3007 40.2368 56.3007H42.2262C42.3367 56.3007 42.4262 56.3902 42.4262 56.5007V59.2091C42.4262 59.3196 42.3367 59.4091 42.2262 59.4091H34.2115C34.101 59.4091 34.0115 59.3196 34.0115 59.2091V56.5007ZM39.6135 56.9323C39.5031 56.9323 39.4135 56.8427 39.4135 56.7323V36.0327C39.4135 35.9222 39.5031 35.8327 39.6135 35.8327H41.6029C41.7133 35.8327 41.8029 35.7431 41.8029 35.6327V34.1874C41.8029 34.077 41.7133 33.9874 41.6029 33.9874H34.8348C34.7243 33.9874 34.6348 34.077 34.6348 34.1874V35.6327C34.6348 35.7431 34.7243 35.8327 34.8348 35.8327H36.8242C36.9346 35.8327 37.0242 35.9222 37.0242 36.0327V56.7323C37.0242 56.8427 36.9346 56.9323 36.8242 56.9323H34.8348C34.7243 56.9323 34.6348 57.0218 34.6348 57.1323V58.5775C34.6348 58.688 34.7243 58.7775 34.8348 58.7775H41.6029C41.7133 58.7775 41.8029 58.688 41.8029 58.5775V57.1323C41.8029 57.0218 41.7133 56.9323 41.6029 56.9323H39.6135Z" fill="black"/>
<path d="M38.2595 51.1343C38.3089 51.1343 38.3541 51.1062 38.376 51.0619L45.648 36.3798C45.6817 36.3117 45.7512 36.2686 45.8272 36.2686H51.2882C51.3986 36.2686 51.4882 36.3581 51.4882 36.4686V37.931C51.4882 38.0415 51.3986 38.131 51.2882 38.131H49.2609C49.1504 38.131 49.0609 38.2205 49.0609 38.331V52.492C49.0609 52.6024 49.1504 52.692 49.2609 52.692H51.2882C51.3986 52.692 51.4882 52.7815 51.4882 52.892V54.3544C51.4882 54.4649 51.3986 54.5544 51.2882 54.5544H44.4062C44.2957 54.5544 44.2062 54.4649 44.2062 54.3544V52.892C44.2062 52.7815 44.2957 52.692 44.4062 52.692H46.4335C46.544 52.692 46.6335 52.6024 46.6335 52.492V39.5176C46.6335 39.4625 46.5888 39.4178 46.5337 39.4178V39.4178C46.4957 39.4178 46.4611 39.4393 46.4442 39.4734L39.0425 54.4431C39.0088 54.5113 38.9393 54.5544 38.8632 54.5544H37.3724C37.2962 54.5544 37.2266 54.5111 37.1929 54.4427L29.8315 39.4735C29.8147 39.4394 29.78 39.4178 29.742 39.4178V39.4178C29.6869 39.4178 29.6422 39.4624 29.6422 39.5175V52.492C29.6422 52.6024 29.7318 52.692 29.8422 52.692H31.8696C31.98 52.692 32.0696 52.7815 32.0696 52.892V54.3544C32.0696 54.4649 31.98 54.5544 31.8696 54.5544H24.9876C24.8771 54.5544 24.7876 54.4649 24.7876 54.3544V52.892C24.7876 52.7815 24.8771 52.692 24.9876 52.692H27.0149C27.1254 52.692 27.2149 52.6024 27.2149 52.492V38.331C27.2149 38.2205 27.1254 38.131 27.0149 38.131H24.9876C24.8771 38.131 24.7876 38.0415 24.7876 37.931V36.4686C24.7876 36.3581 24.8771 36.2686 24.9876 36.2686H30.7716C30.848 36.2686 30.9177 36.312 30.9512 36.3806L38.1427 51.0614C38.1645 51.106 38.2098 51.1343 38.2595 51.1343V51.1343Z" fill="black"/>
<path fill-rule="evenodd" clip-rule="evenodd" d="M45.2648 35.7326C45.2985 35.6644 45.368 35.6213 45.444 35.6213H51.9355C52.046 35.6213 52.1355 35.7109 52.1355 35.8213V38.5595C52.1355 38.6699 52.046 38.7595 51.9355 38.7595H49.9056C49.7951 38.7595 49.7056 38.849 49.7056 38.9595V51.8636C49.7056 51.9741 49.7951 52.0636 49.9056 52.0636H51.9355C52.046 52.0636 52.1355 52.1532 52.1355 52.2637V55.0018C52.1355 55.1122 52.046 55.2018 51.9355 55.2018H43.7803C43.6698 55.2018 43.5803 55.1122 43.5803 55.0018V52.2636C43.5803 52.1532 43.6698 52.0636 43.7803 52.0636H45.8103C45.9207 52.0636 46.0103 51.9741 46.0103 51.8637V42.6479C46.0103 42.4364 45.7247 42.3697 45.631 42.5593L39.4353 55.0904C39.4016 55.1586 39.3321 55.2018 39.2561 55.2018H36.9787C36.9025 55.2018 36.8329 55.1584 36.7992 55.09L30.6451 42.5753C30.5517 42.3852 30.2657 42.4518 30.2657 42.6635V51.8636C30.2657 51.9741 30.3552 52.0636 30.4657 52.0636H32.4957C32.6061 52.0636 32.6957 52.1532 32.6957 52.2637V55.0018C32.6957 55.1122 32.6061 55.2018 32.4957 55.2018H24.3404C24.2299 55.2018 24.1404 55.1122 24.1404 55.0018V52.2636C24.1404 52.1532 24.2299 52.0636 24.3404 52.0636H26.3704C26.4808 52.0636 26.5704 51.9741 26.5704 51.8637V38.9595C26.5704 38.849 26.4808 38.7595 26.3704 38.7595H24.3404C24.2299 38.7595 24.1404 38.6699 24.1404 38.5595V35.8213C24.1404 35.7109 24.2299 35.6213 24.3404 35.6213H31.1572C31.2336 35.6213 31.3033 35.6648 31.3368 35.7334L38.0835 49.5071C38.1565 49.6561 38.3687 49.6565 38.4424 49.5079L45.2648 35.7326ZM30.9434 36.3701C30.9098 36.3016 30.8401 36.2581 30.7638 36.2581H24.973C24.8626 36.2581 24.773 36.3476 24.773 36.4581V37.9227C24.773 38.0331 24.8626 38.1227 24.973 38.1227H27.003C27.1135 38.1227 27.203 38.2122 27.203 38.3227V52.5004C27.203 52.6109 27.1135 52.7004 27.003 52.7004H24.973C24.8626 52.7004 24.773 52.79 24.773 52.9004V54.365C24.773 54.4755 24.8626 54.565 24.973 54.565H31.863C31.9735 54.565 32.063 54.4755 32.063 54.365V52.9004C32.063 52.79 31.9735 52.7004 31.863 52.7004H29.833C29.7226 52.7004 29.633 52.6109 29.633 52.5004V39.5108C29.633 39.4557 29.6777 39.411 29.7328 39.411V39.411C29.7709 39.411 29.8056 39.4326 29.8224 39.4667L37.192 54.4533C37.2257 54.5217 37.2953 54.565 37.3715 54.565H38.8642C38.9403 54.565 39.0098 54.5218 39.0435 54.4536L46.4534 39.4666C46.4702 39.4325 46.505 39.411 46.543 39.411V39.411C46.5982 39.411 46.6429 39.4557 46.6429 39.5109V52.5004C46.6429 52.6109 46.5534 52.7004 46.4429 52.7004H44.4129C44.3025 52.7004 44.2129 52.79 44.2129 52.9004V54.365C44.2129 54.4755 44.3025 54.565 44.4129 54.565H51.3029C51.4133 54.565 51.5029 54.4755 51.5029 54.365V52.9004C51.5029 52.79 51.4133 52.7004 51.3029 52.7004H49.2729C49.1624 52.7004 49.0729 52.6109 49.0729 52.5004V38.3227C49.0729 38.2122 49.1624 38.1227 49.2729 38.1227H51.3029C51.4133 38.1227 51.5029 38.0331 51.5029 37.9227V36.4581C51.5029 36.3476 51.4133 36.2581 51.3029 36.2581H45.8355C45.7595 36.2581 45.6901 36.3012 45.6563 36.3693L38.3763 51.0685C38.3544 51.1129 38.3091 51.1409 38.2597 51.1409V51.1409C38.21 51.1409 38.1646 51.1126 38.1427 51.068L30.9434 36.3701Z" fill="black"/>
<path fill-rule="evenodd" clip-rule="evenodd" d="M23.684 1.56716C23.8267 1.48317 24.0022 1.60087 23.9774 1.76461C23.811 2.86191 23.5916 3.74665 23.2687 4.49358C23.1911 4.67319 23.3848 4.87431 23.5626 4.79264C24.2228 4.48944 24.8941 4.20638 25.5758 3.94426C25.5974 3.93594 25.6178 3.92362 25.6353 3.9085C28.1595 1.73454 29.9915 1.26132 33.0843 2.36648C33.2236 2.41627 33.259 2.59545 33.1502 2.69566C30.816 4.84455 29.1662 5.78534 27.0495 5.55313C27.0189 5.54977 26.9875 5.5532 26.9585 5.56364C26.4547 5.74476 25.9567 5.93793 25.4648 6.14279C25.2673 6.22505 25.3218 6.56488 25.5295 6.61594C26.1457 6.76737 26.7486 7.06405 27.4027 7.48603C27.5218 7.56283 27.5214 7.73594 27.4025 7.81304C25.0841 9.31656 23.4699 9.53428 20.7567 8.65741C20.7 8.63909 20.6372 8.64625 20.5868 8.67808C19.8855 9.1215 19.2023 9.59091 18.5385 10.085C18.368 10.2119 18.4991 10.5216 18.7116 10.5223C19.4402 10.5244 20.1708 10.7268 20.9964 11.0828C21.1265 11.1389 21.1546 11.3097 21.0501 11.4054C19.0712 13.2165 17.5468 13.7228 14.8787 13.3693C14.8161 13.361 14.7522 13.3821 14.708 13.4272C14.2569 13.8869 13.8193 14.36 13.3959 14.8457C13.2595 15.0022 13.4374 15.2657 13.6415 15.2281C14.2921 15.1081 14.9889 15.1421 15.7909 15.2801C15.9305 15.3041 15.9979 15.4636 15.9187 15.5812C14.433 17.7859 13.0808 18.6401 10.4512 18.9296C10.39 18.9364 10.3342 18.9705 10.3017 19.0227C9.89468 19.6747 9.51006 20.3421 9.1489 21.0238C9.04931 21.2118 9.30089 21.4346 9.49299 21.3432C10.1854 21.0138 10.9659 20.8906 11.9116 20.88C12.0533 20.8784 12.1484 21.0231 12.0917 21.153C11.0266 23.5946 9.84846 24.6786 7.30405 25.4386C7.24222 25.457 7.19182 25.504 7.17064 25.565C6.91668 26.296 6.68799 27.0388 6.48561 27.7924C6.43029 27.9984 6.72732 28.1596 6.89409 28.0266C7.50522 27.5393 8.25098 27.2433 9.18943 27.0243C9.32742 26.9921 9.45153 27.1128 9.42431 27.2519C8.91252 29.8662 7.99665 31.1793 5.67668 32.4717C5.61997 32.5033 5.58083 32.5606 5.57364 32.6251C5.47549 33.5064 5.41245 34.3983 5.38594 35.2994C5.37986 35.5062 5.67939 35.5952 5.8123 35.4366C6.35829 34.7851 7.08991 34.3431 8.05804 33.9562C8.18962 33.9036 8.33044 34.0044 8.32443 34.146C8.21584 36.7049 7.55712 38.1309 5.64071 39.6826C5.58758 39.7256 5.55877 39.793 5.5662 39.8609C5.6408 40.5437 5.73648 41.2202 5.85255 41.8897C5.8887 42.0982 6.22113 42.1221 6.31823 41.9341C6.63516 41.3204 7.11487 40.7774 7.75556 40.2168C7.86219 40.1234 8.02852 40.1716 8.0699 40.3071C8.8561 42.8822 8.65288 44.4784 7.17087 46.748C7.13697 46.7999 7.12804 46.8653 7.14827 46.924C7.39932 47.6515 7.67539 48.3675 7.97544 49.0707C8.05696 49.2618 8.37089 49.2158 8.42544 49.0153C8.6236 48.2871 9.02944 47.6207 9.62191 46.9022C9.71206 46.7929 9.884 46.8136 9.94673 46.9406C11.1006 49.2777 11.1913 50.8593 10.2018 53.2071C10.1766 53.2669 10.1811 53.3362 10.2152 53.3915C10.6219 54.0503 11.0514 54.6936 11.5026 55.3203C11.6267 55.4927 11.9371 55.3667 11.9406 55.1542C11.9531 54.3776 12.1958 53.6171 12.6179 52.7573C12.6804 52.6301 12.8524 52.6105 12.9428 52.7196C14.6383 54.7664 15.0766 56.3043 14.6132 58.9074C14.6019 58.9712 14.6214 59.0376 14.6667 59.084C15.2017 59.6312 15.7558 60.1597 16.3279 60.6684C16.4859 60.8088 16.7574 60.6223 16.7154 60.4152C16.5542 59.6203 16.6452 58.7998 16.907 57.8365C16.9441 57.6998 17.1093 57.6479 17.2188 57.7379C19.25 59.4073 19.9787 60.8215 20.0322 63.4109C20.0335 63.4771 20.067 63.5395 20.1224 63.5758C20.7717 64.0019 21.4371 64.4054 22.1175 64.7853C22.2979 64.886 22.5152 64.6621 22.4368 64.4709C22.1257 63.713 22.0636 62.8836 22.146 61.8793C22.1576 61.7381 22.3106 61.6569 22.4346 61.7254C24.6803 62.9653 25.6626 64.1925 26.1966 66.6071C26.2112 66.673 26.2577 66.7284 26.3207 66.7526C27.3059 67.1304 28.3142 67.4618 29.3427 67.7441C29.5489 67.8007 29.711 67.5036 29.5774 67.3367C29.0581 66.6879 28.7662 65.8995 28.5681 64.8978C28.5406 64.7588 28.6655 64.6389 28.8035 64.6709C31.3857 65.2681 32.6671 66.2212 33.8745 68.5574C33.905 68.6165 33.9629 68.6578 34.0288 68.6658C34.8119 68.7608 35.6035 68.8281 36.4027 68.8666C36.47 68.8699 36.5336 68.8383 36.5762 68.7862C36.9132 68.3737 37.4258 68.1104 37.9999 68.1104C38.574 68.1104 39.0866 68.3737 39.4236 68.7862C39.4662 68.8383 39.5298 68.8699 39.5971 68.8666C40.3962 68.8281 41.1879 68.7608 41.9709 68.6658C42.0369 68.6578 42.0948 68.6165 42.1253 68.5574C43.3327 66.2213 44.6141 65.2681 47.1962 64.6709C47.3343 64.6389 47.4592 64.7588 47.4317 64.8978C47.2335 65.8995 46.9417 66.6879 46.4224 67.3367C46.2888 67.5036 46.4509 67.8007 46.6571 67.7441C47.6856 67.4618 48.6938 67.1304 49.6791 66.7526C49.7421 66.7284 49.7885 66.673 49.8031 66.6071C50.3372 64.1925 51.3195 62.9653 53.5652 61.7254C53.6892 61.6569 53.8422 61.7381 53.8538 61.8793C53.9362 62.8836 53.874 63.7131 53.563 64.471C53.4846 64.6621 53.7019 64.8861 53.8823 64.7854C54.5627 64.4055 55.2281 64.0019 55.8774 63.5759C55.9328 63.5395 55.9663 63.4771 55.9676 63.4109C56.0211 60.8215 56.7498 59.4073 58.781 57.7379C58.8904 57.6479 59.0556 57.6998 59.0928 57.8365C59.3546 58.7998 59.4456 59.6203 59.2844 60.4152C59.2424 60.6223 59.5139 60.8089 59.6719 60.6684C60.244 60.1598 60.7981 59.6313 61.333 59.084C61.3784 59.0377 61.3979 58.9712 61.3865 58.9074C60.9231 56.3043 61.3615 54.7664 63.057 52.7196C63.1474 52.6105 63.3194 52.6301 63.3819 52.7573C63.804 53.6171 64.0467 54.3776 64.0592 55.1543C64.0626 55.3668 64.373 55.4928 64.4972 55.3203C64.9484 54.6937 65.3779 54.0504 65.7846 53.3915C65.8187 53.3362 65.8232 53.267 65.7979 53.2071C64.8085 50.8593 64.8991 49.2777 66.053 46.9406C66.1158 46.8136 66.2877 46.7929 66.3779 46.9022C66.9703 47.6207 67.3762 48.2871 67.5743 49.0154C67.6289 49.2158 67.9428 49.2619 68.0243 49.0708C68.3244 48.3675 68.6005 47.6516 68.8515 46.924C68.8718 46.8654 68.8628 46.8 68.8289 46.748C67.3469 44.4784 67.1437 42.8822 67.9299 40.3071C67.9713 40.1716 68.1376 40.1234 68.2442 40.2168C68.8849 40.7774 69.3646 41.3204 69.6816 41.9342C69.7787 42.1222 70.1111 42.0983 70.1472 41.8897C70.2633 41.2203 70.359 40.5438 70.4336 39.8609C70.441 39.793 70.4122 39.7256 70.3591 39.6826C68.4427 38.1308 67.7839 36.7049 67.6753 34.146C67.6693 34.0044 67.8102 33.9036 67.9417 33.9562C68.9099 34.3431 69.6415 34.7851 70.1875 35.4366C70.3204 35.5952 70.62 35.5062 70.6139 35.2994C70.5874 34.3983 70.5243 33.5063 70.4261 32.625C70.419 32.5605 70.3798 32.5032 70.3231 32.4716C68.0033 31.1792 67.0875 29.8661 66.5757 27.2519C66.5485 27.1128 66.6726 26.9921 66.8106 27.0243C67.7489 27.2433 68.4946 27.5392 69.1057 28.0265C69.2725 28.1595 69.5695 27.9982 69.5141 27.7922C69.3118 27.0387 69.0831 26.2959 68.8292 25.565C68.808 25.504 68.7576 25.457 68.6958 25.4386C66.1513 24.6786 64.9732 23.5947 63.908 21.153C63.8514 21.0231 63.9464 20.8784 64.0881 20.88C65.0339 20.8906 65.8144 21.0138 66.5068 21.3432C66.6989 21.4346 66.9505 21.2118 66.8509 21.0238C66.4897 20.3421 66.1051 19.6746 65.6981 19.0226C65.6655 18.9705 65.6097 18.9363 65.5486 18.9296C62.9192 18.6401 61.567 17.7858 60.0813 15.5812C60.0021 15.4636 60.0695 15.3041 60.2091 15.2801C61.0111 15.1421 61.7078 15.1081 62.3583 15.228C62.5624 15.2657 62.7402 15.0021 62.6039 14.8457C62.1805 14.36 61.7429 13.8869 61.2918 13.4272C61.2476 13.3821 61.1837 13.361 61.1211 13.3693C58.453 13.7228 56.9286 13.2165 54.9497 11.4054C54.8451 11.3097 54.8733 11.1389 55.0034 11.0828C55.829 10.7268 56.5596 10.5244 57.2882 10.5223C57.5007 10.5216 57.6318 10.2119 57.4613 10.085C56.7975 9.59091 56.1143 9.12149 55.413 8.67807C55.3626 8.64624 55.2998 8.63908 55.2431 8.6574C52.5299 9.53428 50.9157 9.31656 48.5973 7.81304C48.4784 7.73594 48.478 7.56283 48.5971 7.48603C49.2512 7.06405 49.8541 6.76737 50.4703 6.61594C50.678 6.56488 50.7325 6.22504 50.535 6.14279C50.0431 5.93793 49.5451 5.74476 49.0413 5.56363C49.0123 5.5532 48.9809 5.54976 48.9503 5.55313C46.8336 5.78534 45.1838 4.84456 42.8496 2.69566C42.7408 2.59545 42.7762 2.41627 42.9155 2.36648C46.0083 1.26132 47.8403 1.73454 50.3644 3.9085C50.382 3.92362 50.4024 3.93594 50.424 3.94425C51.1057 4.20637 51.777 4.48943 52.4372 4.79263C52.615 4.8743 52.8087 4.67318 52.731 4.49357C52.4082 3.74665 52.1888 2.86191 52.0224 1.76461C51.9975 1.60088 52.173 1.48317 52.3157 1.56717C55.3601 3.35889 56.2794 4.68455 56.2961 6.75879C56.2966 6.82834 56.3321 6.89374 56.391 6.93073C57.3531 7.53493 58.2834 8.18513 59.1788 8.87825C59.3369 9.00067 59.5777 8.838 59.5347 8.64268C59.3699 7.89294 59.3104 7.03565 59.3261 6.00511C59.3287 5.83953 59.521 5.75239 59.6479 5.85879C62.4517 8.20968 63.0895 9.69108 62.678 11.8585C62.6656 11.9239 62.6854 11.9921 62.7321 12.0397C63.4471 12.7692 64.1301 13.5302 64.7788 14.3204C64.9077 14.4774 65.1866 14.3656 65.185 14.1625C65.1785 13.3445 65.3233 12.4397 65.6019 11.3577C65.6431 11.1974 65.8506 11.1576 65.949 11.2908C68.145 14.2628 68.4013 15.8546 67.4605 17.8937C67.4319 17.9556 67.4356 18.0285 67.4715 18.0866C67.9499 18.8601 68.3987 19.6538 68.8164 20.4662C68.9081 20.6445 69.1961 20.5982 69.2388 20.4023C69.3972 19.6754 69.6848 18.8947 70.1009 17.9961C70.1705 17.8458 70.3816 17.8444 70.4543 17.9932C72.0745 21.3072 72.0419 22.9194 70.7549 24.751C70.7173 24.8045 70.7069 24.8733 70.7282 24.9351C71.0314 25.8099 71.3004 26.7007 71.5338 27.6058C71.5837 27.7997 71.8739 27.8183 71.9588 27.637C72.2701 26.9724 72.7145 26.283 73.3048 25.5092C73.4052 25.3776 73.6116 25.4219 73.6505 25.5828C74.5155 29.1692 74.1348 30.7361 72.4817 32.2461C72.4337 32.2899 72.4086 32.3544 72.4158 32.419C72.5133 33.2986 72.5778 34.1881 72.6081 35.0863C72.6151 35.2923 72.9127 35.3711 73.0309 35.2022C73.4271 34.6356 73.9411 34.0616 74.5899 33.4347C74.709 33.3196 74.9064 33.3942 74.9206 33.5592C75.2515 37.4073 74.5654 38.862 72.4934 40.1448C72.4407 40.1775 72.4048 40.2327 72.3977 40.2943C72.2883 41.2411 72.1407 42.1763 71.9565 43.0982C71.9174 43.2942 72.17 43.4375 72.3261 43.3128C72.9441 42.8188 73.714 42.38 74.6877 41.934C74.8383 41.865 74.9998 42.0012 74.9583 42.1615C74.0468 45.688 72.9894 46.9061 70.8752 47.4707C70.8099 47.4881 70.7564 47.5367 70.7343 47.6006C70.4208 48.507 70.0707 49.3963 69.6858 50.2668C69.6029 50.4543 69.8338 50.6547 70.0143 50.5575C70.6823 50.1977 71.4798 49.9062 72.4592 49.6381C72.619 49.5944 72.7564 49.7547 72.6896 49.9062C71.1636 53.3673 69.8848 54.3463 67.5467 54.5073C67.4818 54.5118 67.4219 54.5468 67.3874 54.602C66.9206 55.349 66.4261 56.077 65.9054 56.7844C65.7863 56.9461 65.9568 57.1838 66.1514 57.1341C66.8666 56.9515 67.6866 56.8579 68.6665 56.8245C68.832 56.8189 68.9285 57.0067 68.8284 57.1387C66.5943 60.0871 65.1386 60.7804 62.9129 60.4505C62.8485 60.441 62.7826 60.4623 62.737 60.5088C62.1433 61.1148 61.5276 61.6991 60.891 62.2603C60.7394 62.394 60.8584 62.6651 61.0604 62.6553C61.7769 62.6208 62.5754 62.6853 63.5092 62.8332C63.6728 62.859 63.7318 63.0617 63.6086 63.1723C60.8198 65.6747 59.2545 66.0573 57.0896 65.2714C57.0295 65.2496 56.9619 65.2567 56.9084 65.2916C56.2319 65.7334 55.539 66.1522 54.8307 66.5468C54.6504 66.6473 54.7168 66.9497 54.9213 66.9779C55.6288 67.0753 56.3983 67.2839 57.2844 67.5978C57.4405 67.6531 57.4618 67.8631 57.3204 67.9493C54.0305 69.9566 52.4224 69.9952 50.3569 68.7209C50.3035 68.6879 50.2371 68.6808 50.1783 68.7029C49.1834 69.0767 48.1667 69.4061 47.1307 69.6885C46.9376 69.7412 46.9231 70.0311 47.1059 70.1128C47.7467 70.3992 48.4167 70.8043 49.1663 71.3368C49.3013 71.4327 49.2642 71.6406 49.1046 71.6849C45.5279 72.6773 43.9515 72.3399 42.3767 70.7135C42.3324 70.6678 42.269 70.6445 42.2058 70.6522C41.3788 70.7523 40.5429 70.8233 39.699 70.8641C39.631 70.8674 39.5699 70.9052 39.5323 70.9619C39.2033 71.458 38.6398 71.7851 37.9999 71.7851C37.36 71.7851 36.7965 71.458 36.4675 70.9619C36.4299 70.9052 36.3688 70.8674 36.3008 70.8641C35.4569 70.8233 34.6209 70.7523 33.7939 70.6522C33.7308 70.6445 33.6673 70.6678 33.6231 70.7135C32.0483 72.3399 30.4719 72.6773 26.8952 71.6849C26.7356 71.6406 26.6984 71.4327 26.8334 71.3368C27.5831 70.8043 28.2531 70.3992 28.8939 70.1128C29.0767 70.0311 29.0622 69.7412 28.869 69.6885C27.833 69.4061 26.8164 69.0767 25.8215 68.7029C25.7627 68.6808 25.6963 68.6879 25.6429 68.7209C23.5774 69.9952 21.9693 69.9567 18.6794 67.9493C18.538 67.8631 18.5593 67.6531 18.7154 67.5978C19.6015 67.2839 20.371 67.0753 21.0785 66.9779C21.283 66.9497 21.3494 66.6473 21.1691 66.5468C20.4608 66.1522 19.7679 65.7334 19.0914 65.2916C19.0379 65.2567 18.9703 65.2496 18.9102 65.2714C16.7453 66.0573 15.18 65.6747 12.3912 63.1723C12.268 63.0617 12.327 62.859 12.4906 62.8332C13.4244 62.6853 14.2229 62.6208 14.9394 62.6553C15.1414 62.6651 15.2605 62.394 15.1088 62.2603C14.4723 61.6991 13.8565 61.1148 13.2628 60.5088C13.2172 60.4623 13.1513 60.441 13.0869 60.4505C10.8612 60.7804 9.40552 60.0871 7.17133 57.1387C7.07131 57.0067 7.16777 56.8189 7.33328 56.8245C8.31321 56.8579 9.13317 56.9515 9.84839 57.1341C10.043 57.1838 10.2135 56.9461 10.0944 56.7844C9.57369 56.077 9.07919 55.349 8.61239 54.602C8.5779 54.5468 8.51805 54.5118 8.45312 54.5073C6.11503 54.3463 4.83619 53.3673 3.31022 49.9062C3.24341 49.7547 3.38082 49.5944 3.54054 49.6381C4.52 49.9062 5.31755 50.1977 5.98555 50.5575C6.16603 50.6548 6.39688 50.4543 6.31397 50.2668C5.92907 49.3964 5.57898 48.507 5.26547 47.6006C5.24337 47.5367 5.18995 47.4881 5.12462 47.4707C3.01035 46.9061 1.95299 45.688 1.04143 42.1615C0.999987 42.0012 1.16148 41.865 1.31204 41.934C2.28579 42.38 3.05566 42.8189 3.67372 43.3128C3.82984 43.4376 4.08246 43.2942 4.04331 43.0983C3.85912 42.1763 3.71154 41.2411 3.60215 40.2943C3.59503 40.2327 3.55916 40.1775 3.50645 40.1449C1.43439 38.862 0.748286 37.4074 1.0792 33.5592C1.09339 33.3942 1.29082 33.3197 1.40991 33.4348C2.05866 34.0616 2.57268 34.6357 2.96895 35.2022C3.08707 35.3711 3.3847 35.2923 3.39166 35.0863C3.422 34.1881 3.48655 33.2985 3.58405 32.4189C3.59121 32.3543 3.56612 32.2898 3.51814 32.246C1.86511 30.736 1.4845 29.1691 2.34951 25.5828C2.38834 25.4219 2.59478 25.3776 2.69522 25.5092C3.28539 26.2829 3.72982 26.9723 4.04103 27.6368C4.12594 27.8181 4.41612 27.7995 4.4661 27.6056C4.69945 26.7005 4.96846 25.8099 5.27155 24.9351C5.29295 24.8733 5.28251 24.8045 5.24494 24.751C3.95785 22.9194 3.92525 21.3073 5.54543 17.9932C5.61816 17.8444 5.82931 17.8458 5.89889 17.9961C6.31498 18.8948 6.60258 19.6755 6.76102 20.4024C6.80372 20.5983 7.09173 20.6446 7.1834 20.4663C7.60109 19.6538 8.04998 18.8599 8.52848 18.0864C8.56437 18.0283 8.56799 17.9554 8.53941 17.8935C7.59876 15.8545 7.8551 14.2627 10.051 11.2908C10.1494 11.1576 10.3569 11.1974 10.3982 11.3577C10.6767 12.4396 10.8215 13.3444 10.815 14.1623C10.8134 14.3654 11.0923 14.4772 11.2212 14.3202C11.8699 13.5301 12.5528 12.7691 13.2677 12.0397C13.3143 11.9922 13.3342 11.9239 13.3217 11.8585C12.9103 9.6911 13.5481 8.2097 16.3518 5.85879C16.4787 5.75239 16.6711 5.83953 16.6736 6.00511C16.6894 7.03567 16.6299 7.89297 16.465 8.64272C16.4221 8.83804 16.6628 9.00072 16.821 8.8783C17.7164 8.18517 18.6467 7.53497 19.6088 6.93076C19.6677 6.89377 19.7031 6.82837 19.7037 6.75882C19.7203 4.68456 20.6397 3.3589 23.684 1.56716Z" fill="black"/>
<path d="M37.5709 11.0686C37.704 11.3472 37.8331 11.8297 37.8331 12.0497V12.0497C37.8331 12.0786 37.8077 12.101 37.779 12.0973L37.7081 12.0881C37.3774 12.0437 37.0245 11.9407 36.7744 11.8095C36.6978 11.7691 36.6272 11.7348 36.6212 11.7308C36.6131 11.7267 36.6252 11.7913 36.6454 11.8721C36.7301 12.1911 36.7301 12.609 36.6454 12.9663C36.6252 13.0511 36.6111 13.1198 36.6131 13.1198C36.6171 13.1198 36.6897 13.0834 36.7764 13.039C37.0345 12.9098 37.3814 12.8129 37.7403 12.7685V12.7685C37.7909 12.7623 37.8342 12.8047 37.8289 12.8554L37.825 12.8936C37.7827 13.2994 37.5629 13.9213 37.4459 13.9576C37.3794 13.9798 37.1011 14.2019 37.0245 14.2947C36.849 14.5067 36.7462 14.7086 36.6837 14.967C36.6514 15.1023 36.6474 15.1084 36.5768 15.1245C36.5385 15.1346 36.4699 15.173 36.4256 15.2113L36.4048 15.2285C36.3783 15.2503 36.3382 15.2351 36.3328 15.2012V15.2012C36.3167 15.0942 36.2199 14.9711 36.115 14.9186C35.9537 14.8419 35.7117 14.8762 35.6069 14.9933V14.9933C35.589 15.0141 35.5556 15.0093 35.5441 14.9844L35.5242 14.9408C35.4415 14.7631 35.2984 14.6844 35.0886 14.6985C34.9596 14.7086 34.8527 14.7672 34.7882 14.8681V14.8681C34.7719 14.8926 34.7351 14.8902 34.7216 14.8641V14.8641C34.5785 14.5895 34.1671 14.5754 33.9897 14.8398L33.9725 14.865C33.9484 14.9005 33.8974 14.904 33.8687 14.8721V14.8721C33.7961 14.7975 33.7336 14.7631 33.6267 14.747C33.3887 14.7066 33.1367 14.9065 33.1347 15.1366C33.1347 15.1932 33.1286 15.2012 33.1004 15.1891C32.9653 15.1306 32.8947 15.1164 32.8161 15.1265C32.5822 15.1588 32.4289 15.3365 32.4289 15.5747C32.4289 15.6615 32.4269 15.6615 32.3765 15.6434C32.2434 15.5929 32.0518 15.6413 31.9369 15.7564C31.8602 15.8331 31.824 15.924 31.824 16.035C31.824 16.1097 31.8139 16.1319 31.7614 16.1764C31.7272 16.2046 31.6808 16.2288 31.6566 16.2288C31.6324 16.2288 31.586 16.243 31.5517 16.2611C31.5033 16.2854 31.4912 16.2874 31.4832 16.2652C31.4791 16.2511 31.4368 16.2006 31.3904 16.1562C31.2331 16.0047 31.0032 15.9926 30.8318 16.1299C30.7451 16.1986 30.7351 16.2006 30.7351 16.1521C30.7351 16.0916 30.6383 15.9704 30.5475 15.9179C30.3721 15.817 30.1926 15.8352 30.0414 15.9684L30.0028 16.0026C29.9785 16.0242 29.9402 16.0149 29.9285 15.9846V15.9846C29.8942 15.9018 29.7994 15.8109 29.7127 15.7746C29.5453 15.7039 29.3154 15.7605 29.2086 15.8957L29.2029 15.903C29.1798 15.9323 29.1347 15.9307 29.1138 15.8998V15.8998C29.0049 15.7383 28.7851 15.6656 28.6097 15.7322C28.5169 15.7685 28.3556 15.922 28.3556 15.9765C28.3556 16.0229 28.3314 16.0128 28.2649 15.9422C28.1015 15.7706 27.8333 15.7605 27.6639 15.922C27.5954 15.9866 27.5288 16.1097 27.5288 16.1683C27.5288 16.1925 27.5228 16.2087 27.5147 16.2046C27.3111 16.0996 27.1618 16.0916 27.0167 16.1764C26.9199 16.2329 26.8332 16.354 26.811 16.4651C26.7969 16.5398 26.7323 16.5741 26.6376 16.5599C26.4581 16.5297 26.2282 16.6891 26.1778 16.8749C26.1496 16.9819 26.0185 17.1293 25.9338 17.1474C25.8451 17.1676 25.718 17.2706 25.6737 17.3614C25.6495 17.4059 25.6273 17.4906 25.6233 17.5472C25.6192 17.6158 25.595 17.6905 25.5567 17.7632C25.4761 17.9126 25.3611 18.2477 25.3208 18.4537C25.3026 18.5465 25.2825 18.7383 25.2764 18.8837C25.2341 19.8487 25.6091 20.8824 26.3149 21.7606C26.5065 21.9968 26.8997 22.3945 27.1155 22.5661C27.2042 22.6388 27.2848 22.7034 27.2949 22.7115C27.303 22.7196 27.2586 22.7317 27.1941 22.7398C27.1276 22.7478 27.0267 22.766 26.9683 22.7822V22.7822C26.9159 22.797 26.8938 22.8589 26.9249 22.9035L26.9642 22.9598C27.2748 23.41 27.9241 24.0056 28.5915 24.4518C28.8214 24.6052 28.8375 24.6193 28.8234 24.6678C28.8154 24.6961 28.8093 24.8051 28.8093 24.9101C28.8093 25.0877 28.8154 25.114 28.8759 25.2371C28.9525 25.3926 29.0715 25.5077 29.2408 25.5904C29.3417 25.6409 29.3759 25.647 29.5554 25.647C29.7349 25.647 29.7692 25.6409 29.872 25.5904C29.9345 25.5601 30.0313 25.4935 30.0837 25.4451C30.1604 25.3764 30.1906 25.3623 30.2168 25.3764C30.2471 25.3946 30.2511 25.4511 30.2511 25.9902V26.5196C30.2511 26.556 30.226 26.5876 30.1906 26.5958V26.5958C30.1039 26.614 29.997 26.723 29.9688 26.822C29.9264 26.9613 29.9567 27.0844 30.0615 27.1874V27.1874C30.1129 27.24 30.1235 27.3203 30.0874 27.3844L29.8982 27.7204C29.7591 27.9646 29.6461 28.1686 29.6461 28.1766C29.6461 28.1827 29.7591 28.3886 29.8982 28.6349L30.0887 28.9737C30.1251 29.0384 30.114 29.1194 30.0615 29.1719V29.1719C29.991 29.2446 29.9688 29.281 29.9587 29.3597C29.9305 29.5374 30.0091 29.6888 30.1583 29.7574C30.239 29.7938 30.4951 29.7958 38.1658 29.7958C45.8123 29.7958 46.0926 29.7938 46.1712 29.7574C46.268 29.713 46.3104 29.6686 46.3527 29.5676C46.4152 29.4162 46.381 29.2648 46.2539 29.1538V29.1538C46.2094 29.115 46.1983 29.0502 46.2275 28.9989L46.4314 28.641C46.5517 28.4297 46.654 28.2425 46.6781 28.188C46.6825 28.178 46.6821 28.1673 46.6774 28.1574C46.6524 28.104 46.5519 27.9222 46.4334 27.7163L46.2356 27.3702C46.206 27.3184 46.2152 27.2532 46.258 27.2116V27.2116C46.2963 27.1732 46.3406 27.1127 46.3547 27.0763C46.4354 26.8866 46.3184 26.6281 46.137 26.5918V26.5918C46.104 26.5847 46.0805 26.5556 46.0805 26.5219V25.9982C46.0805 25.4269 46.0805 25.4168 46.1249 25.3865C46.1652 25.3583 46.1733 25.3623 46.27 25.4491C46.3265 25.4996 46.4233 25.5662 46.4838 25.5945C46.5806 25.6409 46.6209 25.647 46.7964 25.647C46.9778 25.647 47.0101 25.6409 47.119 25.5884C47.2722 25.5117 47.4194 25.3663 47.488 25.2169C47.5344 25.118 47.5425 25.0756 47.5425 24.9101C47.5425 24.8051 47.5364 24.6961 47.5283 24.6678C47.5142 24.6193 47.5304 24.6052 47.7602 24.4518C48.4277 24.0056 49.077 23.41 49.3875 22.9598L49.4268 22.9035C49.4579 22.8589 49.4358 22.797 49.3835 22.7822V22.7822C49.325 22.766 49.2242 22.7478 49.1577 22.7398C49.0931 22.7317 49.0488 22.7196 49.0568 22.7115C49.0669 22.7034 49.1476 22.6388 49.2363 22.5661C49.4521 22.3945 49.8453 21.9968 50.0368 21.7606C50.7487 20.8763 51.1237 19.8265 51.0733 18.8534C51.0532 18.4597 50.9745 18.1407 50.8132 17.8036C50.7608 17.6925 50.7305 17.5976 50.7265 17.5351C50.7164 17.3635 50.5752 17.1858 50.4139 17.1474C50.3312 17.1272 50.2002 16.9799 50.174 16.8749C50.1236 16.6891 49.8937 16.5297 49.7142 16.5599C49.6194 16.5741 49.5549 16.5398 49.5408 16.4651C49.5186 16.354 49.4319 16.2329 49.3351 16.1764C49.1899 16.0916 49.0407 16.0996 48.8391 16.2046C48.829 16.2087 48.8229 16.1925 48.8229 16.1683C48.8229 16.1461 48.8048 16.0936 48.7846 16.0512C48.706 15.8998 48.5567 15.8049 48.3934 15.8049C48.2886 15.8049 48.1151 15.8856 48.0688 15.9563C48.0325 16.0128 47.9962 16.0229 47.9962 15.9765C47.9962 15.928 47.851 15.7806 47.7643 15.7423C47.5747 15.6555 47.3388 15.7302 47.2299 15.9099V15.9099C47.2137 15.9376 47.1743 15.9397 47.1552 15.9139L47.1432 15.8977C47.0383 15.7605 46.8064 15.7039 46.6391 15.7746C46.5524 15.8109 46.4576 15.9018 46.4233 15.9846V15.9846C46.4116 16.0149 46.3732 16.0242 46.3489 16.0026L46.3104 15.9684C46.0946 15.7786 45.77 15.8372 45.6409 16.0916L45.6356 16.102C45.6133 16.1457 45.5566 16.1582 45.5179 16.1279V16.1279C45.3485 15.9926 45.1166 16.0047 44.9614 16.1562C44.915 16.2006 44.8726 16.2511 44.8686 16.2652C44.8605 16.2874 44.8484 16.2854 44.8 16.2611C44.7658 16.243 44.7214 16.2288 44.7012 16.2288C44.679 16.2288 44.6327 16.2066 44.5944 16.1764C44.5359 16.1319 44.5278 16.1138 44.5278 16.035C44.5278 15.9866 44.5157 15.9159 44.5016 15.8796C44.4653 15.7948 44.3302 15.6757 44.2354 15.6434C44.1628 15.6191 44.0076 15.6232 43.943 15.6514C43.9188 15.6615 43.9128 15.6474 43.9188 15.5747C43.9309 15.4354 43.8503 15.2759 43.7293 15.2012C43.576 15.1023 43.4591 15.1003 43.2534 15.1891C43.2231 15.2012 43.2171 15.1932 43.2171 15.1407C43.2171 14.9226 43.0215 14.745 42.7835 14.747C42.6484 14.749 42.5718 14.7813 42.4831 14.8721V14.8721C42.4544 14.904 42.4034 14.9005 42.3792 14.865L42.3621 14.8398C42.1867 14.5774 41.7733 14.5895 41.6321 14.86V14.86C41.6186 14.8872 41.582 14.8921 41.5617 14.8695L41.5333 14.8378C41.493 14.7954 41.4305 14.745 41.3942 14.7268C41.3034 14.6844 41.13 14.6864 41.0272 14.7328C40.9324 14.7752 40.8255 14.8984 40.8054 14.9832V14.9832C40.8002 15.0083 40.7692 15.0176 40.751 14.9994L40.7408 14.9892C40.6158 14.8721 40.398 14.8419 40.2367 14.9186C40.1319 14.9711 40.0351 15.0942 40.0189 15.2012V15.2012C40.0136 15.2351 39.9734 15.2503 39.947 15.2285L39.9262 15.2113C39.8838 15.173 39.8092 15.1326 39.7629 15.1205V15.1205C39.7106 15.1055 39.6706 15.0634 39.6584 15.0104L39.6419 14.9388C39.5995 14.747 39.4866 14.5188 39.3495 14.3452C39.2466 14.218 39.0168 14.0242 38.8877 13.9596C38.7486 13.891 38.553 13.3378 38.5066 12.8916L38.5025 12.8516C38.4974 12.8011 38.541 12.7593 38.5913 12.7664V12.7664C38.9926 12.8189 39.3011 12.9098 39.5652 13.0491C39.658 13.0996 39.7286 13.1278 39.7225 13.1137C39.7185 13.1016 39.6923 13.0067 39.6661 12.9078C39.5874 12.5989 39.6096 12.1446 39.7185 11.7732C39.7306 11.7348 39.7165 11.7388 39.5632 11.8176C39.2991 11.9569 38.926 12.0619 38.5913 12.0962V12.0962C38.5417 12.1013 38.5003 12.0591 38.5063 12.0097L38.5086 11.9912C38.5469 11.6662 38.6659 11.2624 38.7929 11.0221C38.8292 10.9494 38.8575 10.8889 38.8534 10.8848C38.8494 10.8808 38.7707 10.897 38.678 10.9232C38.5328 10.9616 38.4602 10.9696 38.1658 10.9696C37.825 10.9696 37.8069 10.9676 37.5387 10.8828V10.8828C37.514 10.8751 37.4919 10.9004 37.5029 10.9238L37.5709 11.0686ZM35.2742 16.3076C35.6351 16.3803 36.1594 16.5922 36.1594 16.6649C36.1594 16.6831 36.1251 16.6669 36.0687 16.6225C35.8489 16.455 35.5403 16.5196 35.4173 16.7598V16.7598C35.3919 16.8077 35.3279 16.8185 35.2882 16.7815L35.2822 16.776C35.0987 16.6064 34.8668 16.6145 34.6833 16.7962L34.6439 16.8356C34.6151 16.8644 34.5673 16.86 34.5442 16.8264V16.8264C34.4555 16.6952 34.272 16.6165 34.1227 16.6427C34.0381 16.6589 33.8908 16.7416 33.8606 16.7901C33.8425 16.8224 33.8384 16.8224 33.8203 16.7901C33.7658 16.6992 33.6832 16.6225 33.5944 16.5821V16.5821C33.5558 16.5644 33.5551 16.5097 33.5934 16.4911L33.6469 16.4651C33.8142 16.3843 34.0159 16.3177 34.2276 16.2773C34.4333 16.2389 35.014 16.2551 35.2742 16.3076ZM42.1121 16.2793C42.3319 16.3177 42.5194 16.3762 42.7069 16.4651L42.7591 16.4898C42.798 16.5082 42.7982 16.5635 42.7593 16.5821V16.5821C42.6706 16.6225 42.5859 16.6992 42.5315 16.7901C42.5133 16.8224 42.5093 16.8224 42.4912 16.7901C42.4609 16.7416 42.3137 16.6589 42.229 16.6427C42.0798 16.6165 41.8963 16.6952 41.8076 16.8264V16.8264C41.7845 16.86 41.7366 16.8644 41.7078 16.8356L41.6684 16.7962C41.4849 16.6145 41.253 16.6064 41.0695 16.776L41.0635 16.7815C41.0238 16.8185 40.9599 16.8077 40.9344 16.7598V16.7598C40.8114 16.5196 40.5029 16.455 40.2831 16.6225C40.2266 16.6669 40.1924 16.6831 40.1924 16.6649C40.1924 16.6023 40.6138 16.4186 40.9485 16.3379C41.3216 16.249 41.7975 16.2248 42.1121 16.2793ZM29.999 17.3796C30.2007 17.3978 30.7351 17.4745 30.7492 17.4886C30.7512 17.4906 30.7189 17.5916 30.6766 17.7127C30.5233 18.1448 30.4608 18.5808 30.479 19.0452C30.5032 19.5721 30.5919 19.9678 30.856 20.7007C31.0617 21.27 31.1565 21.5769 31.1948 21.8151L31.2163 21.937C31.2258 21.9907 31.2567 22.0382 31.3021 22.0685L31.7231 22.3501C32.1103 22.6085 32.5418 22.9073 32.6084 22.9639C32.6124 22.9679 32.6104 22.9901 32.6043 23.0163C32.5922 23.0587 32.5822 23.0628 32.4712 23.0567L32.4635 23.0562C32.4089 23.0526 32.3684 23.106 32.3866 23.1577V23.1577C32.4652 23.3858 32.6366 23.6927 32.8463 23.9773L32.885 24.0297C32.9022 24.053 32.8761 24.0836 32.8503 24.0702V24.0702C32.7052 23.9975 32.6043 23.9632 32.441 23.9309L32.386 23.9204C32.3458 23.9127 32.3101 23.9469 32.316 23.9874V23.9874C32.324 24.0339 32.3523 24.1207 32.3805 24.1812L32.4005 24.2262C32.4178 24.2653 32.4108 24.3108 32.3825 24.3428V24.3428C32.2978 24.4336 32.2716 24.4901 32.2172 24.7041L32.1898 24.8169C32.1753 24.877 32.1893 24.9404 32.2278 24.9887L32.318 25.1019C32.4652 25.2876 32.6305 25.439 32.7112 25.4653C32.7435 25.4754 32.7515 25.4955 32.7515 25.5783C32.7515 25.7035 32.7898 25.8589 32.8201 25.8589C32.8544 25.8589 33.054 25.762 33.1589 25.6954C33.2335 25.647 33.2678 25.6369 33.3162 25.647C33.3484 25.655 33.3766 25.6712 33.3766 25.6853C33.3766 25.7237 33.2294 25.9417 33.1629 26.0043C32.9834 26.1699 32.7193 26.2122 32.5156 26.1113C32.3402 26.0225 32.1809 25.8206 32.1083 25.5924C32.0881 25.5299 32.0901 25.5077 32.1163 25.4572C32.199 25.2977 32.1708 25.0918 32.0498 24.9484C31.955 24.8394 31.8461 24.7889 31.6929 24.7889C31.5396 24.7889 31.3985 24.8636 31.3118 24.9868C31.2351 25.0958 31.215 25.2876 31.2674 25.4249C31.3037 25.5178 31.4267 25.6449 31.5154 25.6793C31.5578 25.6954 31.5638 25.7075 31.5537 25.754C31.5316 25.8408 31.4106 26.0245 31.3319 26.0891C31.2493 26.1577 31.094 26.182 30.9972 26.1416C30.8843 26.0952 30.7552 25.9195 30.6826 25.7136C30.6564 25.6348 30.6564 25.6348 30.7008 25.649C30.725 25.655 30.7774 25.6793 30.8157 25.6974C30.8923 25.7358 31.2916 25.8791 31.3218 25.8791C31.344 25.8791 31.2251 25.7095 31.1041 25.5642C31.0254 25.4713 31.0194 25.4531 31.0375 25.4067C31.0678 25.326 31.0617 25.223 31.0194 25.0453C30.9871 24.9101 30.969 24.8757 30.8823 24.7829C30.8278 24.7263 30.7471 24.6234 30.7008 24.5568C30.61 24.4215 30.5052 24.3105 30.4507 24.2943C30.4326 24.2882 30.4043 24.2559 30.3902 24.2216C30.3781 24.1873 30.3297 24.1045 30.2874 24.0379L30.2559 23.9885C30.2272 23.9436 30.1749 23.9195 30.122 23.9269V23.9269C30.0071 23.943 29.8296 24.0117 29.7369 24.0722C29.6966 24.1005 29.6401 24.1227 29.6078 24.1227C29.5594 24.1227 29.5473 24.1086 29.505 24.0056C29.4788 23.943 29.4284 23.8401 29.3941 23.7775C29.3356 23.6765 29.3255 23.6361 29.3054 23.4242C29.2388 22.7034 29.2328 22.1805 29.2852 21.6697C29.2973 21.5587 29.3074 21.4517 29.3094 21.4315C29.3134 21.4012 29.2751 21.379 29.1219 21.3245C28.2306 21.0035 27.5893 20.3817 27.3534 19.6064C27.305 19.447 27.301 19.3965 27.299 19.1159C27.299 18.7444 27.3252 18.6091 27.4562 18.3386C27.6055 18.0297 27.8636 17.7894 28.2185 17.6219C28.6722 17.4099 29.3134 17.3231 29.999 17.3796ZM47.4073 17.4099C48.1393 17.523 48.6556 17.846 48.8955 18.3386C49.0266 18.6091 49.0528 18.7444 49.0528 19.1159C49.0508 19.3985 49.0467 19.447 48.9963 19.6105C48.7624 20.3797 48.1171 21.0055 47.2299 21.3245C47.0766 21.379 47.0383 21.4012 47.0424 21.4315C47.0444 21.4517 47.0545 21.5587 47.0666 21.6697C47.119 22.1765 47.1129 22.7357 47.0464 23.4343C47.0262 23.6341 47.0141 23.6785 46.9577 23.7775C46.9234 23.8401 46.873 23.943 46.8468 24.0056C46.8044 24.1086 46.7923 24.1227 46.7439 24.1227C46.7117 24.1227 46.6552 24.1005 46.6149 24.0722C46.5221 24.0117 46.3447 23.943 46.2297 23.9269V23.9269C46.1769 23.9195 46.1246 23.9436 46.0959 23.9885L46.0644 24.0379C46.022 24.1045 45.9756 24.1853 45.9615 24.2176C45.9494 24.2479 45.901 24.2963 45.8567 24.3246C45.8103 24.3529 45.7337 24.4356 45.6732 24.5265C45.6147 24.6093 45.524 24.7263 45.4695 24.7829C45.3828 24.8757 45.3646 24.9101 45.3324 25.0453C45.29 25.223 45.284 25.326 45.3142 25.4067C45.3324 25.4531 45.3263 25.4713 45.2477 25.5642C45.1267 25.7095 45.0077 25.8791 45.0299 25.8791C45.0622 25.8791 45.4413 25.7418 45.5562 25.6894C45.597 25.6703 45.6341 25.6558 45.6559 25.6497C45.6685 25.6461 45.678 25.6533 45.6754 25.6662C45.6652 25.7184 45.6041 25.8599 45.5502 25.9478C45.4635 26.0871 45.3525 26.1618 45.2295 26.1618C45.1751 26.1618 45.1045 26.1476 45.0743 26.1315C44.9452 26.0649 44.7315 25.7338 44.794 25.6954C44.8081 25.6853 44.8303 25.6772 44.8424 25.6772C44.8545 25.6772 44.9069 25.6409 44.9573 25.5965C45.0763 25.4915 45.1207 25.3784 45.1086 25.2089C45.0985 25.0413 45.0299 24.9323 44.8867 24.8495C44.6891 24.7364 44.4492 24.7768 44.302 24.9484C44.181 25.0897 44.1527 25.2977 44.2354 25.4531C44.2616 25.5036 44.2616 25.5238 44.2374 25.5904C44.1527 25.8307 43.9955 26.0326 43.8321 26.1113C43.7837 26.1355 43.693 26.1537 43.6043 26.1577C43.4772 26.1658 43.445 26.1598 43.3482 26.1133C43.2231 26.0507 43.0618 25.8852 42.9993 25.754L42.9889 25.7315C42.9733 25.6979 42.9918 25.6585 43.0275 25.649V25.649C43.086 25.6348 43.1102 25.6409 43.1929 25.6934C43.2978 25.762 43.4974 25.8589 43.5317 25.8589C43.5619 25.8589 43.6002 25.7035 43.6002 25.5783C43.6002 25.4955 43.6083 25.4754 43.6406 25.4653C43.7212 25.439 43.8866 25.2876 44.0338 25.1019L44.1234 24.9893C44.1622 24.9406 44.1762 24.8767 44.1611 24.8162L44.1406 24.7344C44.0862 24.5083 44.058 24.4437 43.9834 24.3589V24.3589C43.9465 24.3159 43.9384 24.2553 43.9625 24.2041L43.9733 24.1812C43.9995 24.1207 44.0277 24.0339 44.0358 23.9874V23.9874C44.0417 23.9469 44.0059 23.9127 43.9657 23.9204L43.9108 23.9309C43.7474 23.9632 43.6466 23.9975 43.5014 24.0702V24.0702C43.4757 24.0836 43.4496 24.053 43.4668 24.0297L43.5054 23.9773C43.7152 23.6927 43.8866 23.3858 43.9652 23.1577V23.1577C43.9833 23.1061 43.9428 23.0527 43.8882 23.0563L43.8825 23.0567C43.7615 23.0628 43.7414 23.0527 43.7414 22.984C43.7414 22.9517 44.0741 22.7115 44.6649 22.3198C44.9109 22.1563 45.1126 22.019 45.1126 22.015C45.1126 22.0109 45.1267 21.9282 45.1428 21.8292C45.1872 21.5749 45.2719 21.3003 45.4635 20.7754C45.7155 20.0869 45.8143 19.7195 45.8587 19.2794C45.9131 18.7343 45.8607 18.2699 45.6873 17.7531C45.6632 17.6819 45.6417 17.6161 45.6263 17.568C45.6102 17.5174 45.631 17.4802 45.6832 17.4709C45.8405 17.4427 46.1837 17.3925 46.3124 17.3816C46.5846 17.3554 47.1513 17.3715 47.4073 17.4099ZM37.095 17.8702C37.1858 18.165 37.216 18.3729 37.216 18.7222C37.216 19.0997 37.1818 19.3056 37.0648 19.671C36.8531 20.3171 36.4397 20.9571 35.9174 21.4396C35.7238 21.6173 35.7158 21.6294 35.75 21.6617C35.7702 21.6798 35.9235 21.805 36.0929 21.9362C36.4195 22.1926 36.8551 22.5702 37.1676 22.869L37.2831 22.9785C37.311 23.005 37.2928 23.0519 37.2543 23.0527V23.0527C37.1495 23.0527 37.1475 23.0527 37.1475 23.1153C37.1475 23.3151 37.3209 23.725 37.5609 24.0904V24.0904C37.5712 24.1056 37.5545 24.1246 37.5381 24.1164L37.4782 24.0864C37.337 24.0157 37.1253 23.9491 36.9579 23.9228V23.9228C36.8976 23.9145 36.845 23.9638 36.8493 24.0245L36.851 24.05C36.8591 24.1288 36.8692 24.2156 36.8732 24.2438C36.8833 24.2862 36.8692 24.3044 36.8006 24.3549C36.6958 24.4296 36.5929 24.5648 36.4901 24.7586L36.4686 24.799C36.4335 24.8648 36.4379 24.9446 36.48 25.0061L36.5082 25.0473C36.6434 25.2472 36.7543 25.3663 36.8551 25.4269V25.4269C36.9083 25.4579 36.9398 25.516 36.9366 25.5776L36.9317 25.6712L36.9237 25.7995C36.9216 25.8327 36.9514 25.859 36.9841 25.8529V25.8529C37.095 25.8307 37.454 25.6813 37.5931 25.6005L37.6539 25.5646C37.6985 25.5382 37.754 25.538 37.7988 25.5642V25.5642C37.8391 25.5884 37.8734 25.6147 37.8734 25.6248C37.8734 25.6631 37.7464 25.8388 37.6637 25.9155C37.4641 26.0992 37.2624 26.1699 36.968 26.1577C36.7946 26.1517 36.7563 26.1436 36.6171 26.077C36.4457 25.9942 36.3005 25.865 36.2098 25.7116L36.1842 25.6677C36.1659 25.6363 36.1706 25.5966 36.1957 25.5702V25.5702C36.355 25.4007 36.359 25.118 36.2038 24.9464C36.1049 24.8374 35.9981 24.7889 35.8468 24.7889C35.4476 24.7889 35.2399 25.2836 35.5202 25.5723L35.5231 25.5752C35.5588 25.6122 35.5673 25.6676 35.5444 25.7136V25.7136C35.4758 25.8428 35.2863 26.0164 35.137 26.0851C35.0221 26.1396 34.9697 26.1517 34.8124 26.1577C34.6551 26.1658 34.6047 26.1598 34.4998 26.1214C34.2659 26.0346 34.0824 25.869 33.9776 25.6449L33.9426 25.5702C33.9276 25.5381 33.9361 25.5 33.9634 25.4774V25.4774C34.0098 25.441 34.0098 25.441 34.1409 25.5299C34.3022 25.6409 34.5281 25.756 34.7237 25.8266L34.7918 25.8506C34.8282 25.8634 34.8651 25.8325 34.8588 25.7943V25.7943C34.8507 25.7459 34.8265 25.655 34.8063 25.5904L34.7907 25.5451C34.7759 25.5019 34.7893 25.454 34.8245 25.4249V25.4249C34.8971 25.3643 34.9737 25.221 35.0322 25.0373L35.0493 24.9828C35.0678 24.9241 35.0583 24.8603 35.0235 24.8096L34.9636 24.7223C34.8144 24.5022 34.7095 24.3831 34.6188 24.3347C34.5482 24.2963 34.5462 24.2923 34.5442 24.1631C34.5402 23.9571 34.524 23.9087 34.4655 23.9168C34.3365 23.9329 34.1691 23.9955 34.0602 24.0642C33.9957 24.1065 33.9413 24.1348 33.9413 24.1247C33.9413 24.1166 33.9594 24.0581 33.9796 23.9955C34.0643 23.7512 34.1167 23.3596 34.0925 23.1617V23.1617C34.0846 23.0983 34.0285 23.0521 33.9647 23.0565L33.9614 23.0567C33.8808 23.0628 33.8465 23.0587 33.8566 23.0446C34.0643 22.6933 34.395 22.3279 34.6833 22.124C34.7519 22.0755 34.8084 22.0251 34.8084 22.013C34.8084 22.0008 34.7116 21.9282 34.5926 21.8514C33.2153 20.9571 32.4975 20.0385 32.3382 18.9665C32.2857 18.6111 32.3079 18.1811 32.3906 17.9308C32.4148 17.8581 32.445 17.85 32.5701 17.8843C32.683 17.9146 33.2214 18.0014 33.538 18.0398C33.8989 18.0822 34.7216 18.0882 35.1007 18.0479C35.6533 17.9934 36.357 17.852 36.8148 17.7067C37.0305 17.638 37.0204 17.632 37.095 17.8702ZM39.662 17.743C40.4323 17.9691 41.1845 18.0761 42.0072 18.0741C42.598 18.0741 43.0094 18.0337 43.6365 17.9126C43.7837 17.8843 43.9168 17.8641 43.9309 17.8702C43.945 17.8763 43.9733 17.957 43.9955 18.0499C44.0519 18.2982 44.0479 18.8453 43.9874 19.13C43.7757 20.1091 43.1243 20.9268 41.8923 21.7545C41.7007 21.8838 41.5434 21.9988 41.5434 22.013C41.5434 22.0251 41.5858 22.0675 41.6402 22.1058C41.8056 22.2249 42.0334 22.4349 42.1584 22.5863C42.2754 22.7276 42.4912 23.0285 42.4912 23.0507C42.4912 23.0567 42.4428 23.0587 42.3823 23.0567V23.0567C42.3213 23.0522 42.2675 23.0963 42.2601 23.157L42.2593 23.1637C42.2351 23.3596 42.2875 23.7512 42.3722 23.9955C42.3923 24.0581 42.4105 24.1166 42.4105 24.1247C42.4105 24.1348 42.3561 24.1065 42.2915 24.0642C42.1826 23.9955 42.0153 23.9329 41.8862 23.9168C41.8277 23.9087 41.8116 23.9571 41.8076 24.1631C41.8056 24.2923 41.8035 24.2963 41.733 24.3347C41.6422 24.3831 41.5374 24.5022 41.3881 24.7223L41.3283 24.8096C41.2935 24.8603 41.284 24.9241 41.3024 24.9828L41.3196 25.0373C41.3781 25.221 41.4547 25.3643 41.5273 25.4249V25.4249C41.5625 25.454 41.5759 25.5019 41.561 25.5451L41.5454 25.5904C41.5253 25.655 41.5011 25.7459 41.493 25.7943V25.7943C41.4867 25.8325 41.5235 25.8634 41.56 25.8506L41.6281 25.8266C41.8237 25.756 42.0495 25.6409 42.2129 25.5278C42.3399 25.4431 42.348 25.439 42.3782 25.4733C42.4226 25.5218 42.4206 25.5379 42.348 25.6813C42.2653 25.8468 42.11 25.9962 41.9366 26.083C41.8015 26.1497 41.7874 26.1517 41.5636 26.1517C41.3478 26.1517 41.3236 26.1476 41.2107 26.0931C41.0695 26.0225 40.9203 25.8892 40.8255 25.7479L40.8147 25.7322C40.7812 25.6839 40.7866 25.6185 40.8276 25.5763V25.5763C41.0373 25.3603 40.9929 25.009 40.7368 24.8535C40.4202 24.6638 40.031 24.8899 40.031 25.2634C40.031 25.3502 40.1036 25.5278 40.1581 25.5723C40.1883 25.5985 40.1883 25.6066 40.148 25.6833C40.0895 25.7984 39.908 25.9841 39.7931 26.0467C39.6257 26.1375 39.4826 26.1678 39.2668 26.1577C39.1035 26.1497 39.051 26.1396 38.9381 26.0851C38.7828 26.0144 38.6114 25.863 38.5167 25.7136C38.4983 25.6844 38.4823 25.6576 38.472 25.6383C38.4618 25.6194 38.4698 25.6033 38.4884 25.5926C38.5038 25.5837 38.5238 25.5722 38.5449 25.5601V25.5601C38.5923 25.5327 38.6508 25.5326 38.6982 25.56L38.7405 25.5844C38.9522 25.7095 39.3898 25.8812 39.418 25.8529C39.4382 25.8347 39.4382 25.6793 39.4201 25.5743V25.5743C39.4103 25.5172 39.4371 25.4601 39.4871 25.431L39.4906 25.4289C39.6015 25.3643 39.7165 25.2432 39.8475 25.0534L39.8792 25.0075C39.9227 24.9442 39.9262 24.8616 39.8881 24.7949L39.8859 24.791C39.7286 24.5103 39.6277 24.3852 39.4926 24.3064C39.4745 24.2963 39.4745 24.2559 39.5007 24.1288C39.5451 23.8986 39.5451 23.8986 39.3515 23.9329C39.168 23.9672 38.9885 24.0258 38.8635 24.0944C38.8151 24.1207 38.7728 24.1409 38.7687 24.1368C38.7667 24.1348 38.805 24.0682 38.8554 23.9915C39.0309 23.7169 39.1781 23.3656 39.2124 23.1375V23.1375C39.2187 23.0927 39.184 23.0527 39.1388 23.0527H39.1095H39.0959C39.058 23.0527 39.0388 23.0072 39.0651 22.98V22.98C39.3091 22.7236 40.269 21.9039 40.5412 21.7202C40.5815 21.692 40.6199 21.6597 40.6239 21.6475C40.6299 21.6334 40.5432 21.5405 40.4323 21.4376C39.9141 20.9571 39.4967 20.3231 39.287 19.6892C39.0672 19.0331 39.0672 18.3769 39.289 17.7571C39.3212 17.6663 39.3394 17.6421 39.3636 17.6522C39.3817 17.6602 39.5148 17.7006 39.662 17.743Z" fill="black"/>
</svg>
