<svg width="160" height="42" viewBox="0 0 160 42" fill="none" xmlns="http://www.w3.org/2000/svg">
<path d="M57.014 10.5568V15.046H57.3335C57.8252 15.046 58.2266 14.9735 58.538 14.8284C58.8494 14.6833 59.1116 14.4389 59.3246 14.095C59.5431 13.7511 59.6851 13.2863 59.7507 12.7007H60.0374V18.1893H59.7507C59.6469 17.1523 59.3628 16.4699 58.8985 16.1421C58.4397 15.809 57.918 15.6424 57.3335 15.6424H57.014V18.9872C57.014 19.546 57.044 19.8952 57.1041 20.0349C57.1697 20.1746 57.2926 20.2982 57.4728 20.4057C57.6586 20.5078 57.9071 20.5588 58.2185 20.5588H58.5872V20.857H52.7779V20.5588H53.1466C53.4689 20.5588 53.7283 20.5024 53.925 20.3895C54.067 20.3143 54.1763 20.1854 54.2527 20.0027C54.3128 19.8737 54.3429 19.5352 54.3429 18.9872V11.798C54.3429 11.2392 54.3128 10.8899 54.2527 10.7502C54.1926 10.6105 54.0697 10.4897 53.884 10.3876C53.7038 10.2801 53.4579 10.2264 53.1466 10.2264H52.7779V9.92817H62.1514V13.0634H61.8155C61.739 12.3272 61.5423 11.7819 61.2255 11.4273C60.9142 11.0726 60.4608 10.8228 59.8654 10.6777C59.5376 10.5971 58.9313 10.5568 58.0464 10.5568H57.014Z" fill="#242424"/>
<path d="M63.0527 9.92817H68.7883V10.2264H68.5015C68.07 10.2264 67.7723 10.272 67.6084 10.3634C67.45 10.4494 67.3353 10.5703 67.2642 10.7261C67.1987 10.8819 67.1659 11.2714 67.1659 11.8947V17.2463C67.1659 18.2242 67.2397 18.8717 67.3872 19.1887C67.5401 19.5057 67.7886 19.769 68.1328 19.9785C68.4769 20.1881 68.9112 20.2928 69.4356 20.2928C70.0364 20.2928 70.5472 20.1612 70.9678 19.8979C71.3939 19.6293 71.7107 19.2612 71.9182 18.7937C72.1313 18.3263 72.2378 17.5123 72.2378 16.3517V11.8947C72.2378 11.4058 72.1859 11.0565 72.0821 10.847C71.9783 10.6374 71.8472 10.4923 71.6888 10.4117C71.443 10.2882 71.0961 10.2264 70.6482 10.2264V9.92817H74.4911V10.2264H74.2616C73.9503 10.2264 73.6908 10.2882 73.4832 10.4117C73.2757 10.5353 73.1254 10.7207 73.0326 10.9679C72.9616 11.1398 72.9261 11.4487 72.9261 11.8947V16.0454C72.9261 17.3296 72.8387 18.2564 72.6639 18.826C72.4945 19.3955 72.0767 19.9194 71.4102 20.3976C70.7438 20.8758 69.8343 21.1149 68.6818 21.1149C67.7204 21.1149 66.9775 20.9886 66.4531 20.7361C65.7375 20.3922 65.2322 19.9516 64.9373 19.4143C64.6423 18.877 64.4948 18.1543 64.4948 17.2463V11.8947C64.4948 11.2661 64.4593 10.8765 64.3883 10.7261C64.3173 10.5703 64.1944 10.4467 64.0196 10.3553C63.8448 10.264 63.5225 10.221 63.0527 10.2264V9.92817Z" fill="#242424"/>
<path d="M78.9648 9.92817L84.4463 16.7063V12.0075C84.4463 11.352 84.3507 10.9088 84.1596 10.6777C83.8974 10.3661 83.4576 10.2156 82.8404 10.2264V9.92817H86.5111V10.2264C86.0414 10.2855 85.7245 10.3634 85.5607 10.4601C85.4023 10.5514 85.2766 10.7046 85.1838 10.9195C85.0964 11.1291 85.0527 11.4917 85.0527 12.0075V21.1069H84.7741L77.2605 12.0075V18.9549C77.2605 19.5836 77.4053 20.0081 77.6948 20.2284C77.9897 20.4486 78.3257 20.5588 78.7026 20.5588H78.9648V20.857H75.0236V20.5588C75.6354 20.5534 76.0615 20.4298 76.3018 20.1881C76.5422 19.9463 76.6624 19.5352 76.6624 18.9549V11.2419L76.4248 10.9517C76.1899 10.6616 75.9823 10.4708 75.802 10.3795C75.6218 10.2882 75.3623 10.2371 75.0236 10.2264V9.92817H78.9648Z" fill="#242424"/>
<path d="M91.4847 10.5568V15.0057H91.7059C92.4106 15.0057 92.9213 14.7881 93.2381 14.3529C93.5549 13.9177 93.7571 13.2756 93.8445 12.4266H94.1558V18.149H93.8445C93.7789 17.5257 93.6396 17.0153 93.4266 16.6176C93.219 16.22 92.9759 15.9541 92.6973 15.8197C92.4188 15.68 92.0145 15.6102 91.4847 15.6102V18.689C91.4847 19.2908 91.5093 19.6588 91.5584 19.7931C91.6131 19.9275 91.7114 20.0376 91.8534 20.1236C91.9954 20.2095 92.2248 20.2525 92.5417 20.2525H93.2054C94.2432 20.2525 95.0735 20.0161 95.6962 19.5433C96.3244 19.0705 96.7751 18.3505 97.0482 17.3833H97.3513L96.8515 20.857H87.2486V20.5588H87.6173C87.9396 20.5588 88.199 20.5024 88.3957 20.3895C88.5377 20.3143 88.6469 20.1854 88.7234 20.0027C88.7835 19.8737 88.8136 19.5352 88.8136 18.9872V11.798C88.8136 11.3037 88.7999 11.0001 88.7726 10.8873C88.718 10.6992 88.6169 10.5541 88.4694 10.452C88.2618 10.3016 87.9778 10.2264 87.6173 10.2264H87.2486V9.92817H96.5484V13.1601H96.237C96.0786 12.3702 95.8546 11.8034 95.5651 11.4595C95.2811 11.1156 94.8769 10.8631 94.3525 10.7019C94.0466 10.6052 93.473 10.5568 92.6318 10.5568H91.4847Z" fill="#242424"/>
<path d="M102.563 15.8762V18.9388C102.563 19.5299 102.598 19.9033 102.669 20.0591C102.745 20.2095 102.877 20.3304 103.062 20.4218C103.248 20.5131 103.595 20.5588 104.103 20.5588V20.857H98.4165V20.5588C98.93 20.5588 99.2768 20.5131 99.4571 20.4218C99.6428 20.3251 99.7712 20.2015 99.8422 20.051C99.9187 19.9006 99.9569 19.5299 99.9569 18.9388V11.8464C99.9569 11.2553 99.9187 10.8846 99.8422 10.7341C99.7712 10.5783 99.6428 10.4547 99.4571 10.3634C99.2714 10.272 98.9245 10.2264 98.4165 10.2264V9.92817H103.579C104.922 9.92817 105.906 10.0195 106.528 10.2022C107.151 10.3849 107.659 10.7234 108.052 11.2177C108.446 11.7067 108.642 12.2816 108.642 12.9425C108.642 13.7484 108.347 14.4147 107.757 14.9412C107.38 15.2744 106.853 15.5242 106.176 15.6908L108.847 19.3902C109.197 19.8684 109.445 20.1666 109.593 20.2848C109.817 20.4513 110.076 20.5427 110.371 20.5588V20.857H106.872L103.292 15.8762H102.563ZM102.563 10.5165V15.3039H103.03C103.789 15.3039 104.357 15.2368 104.734 15.1024C105.111 14.9627 105.406 14.7156 105.619 14.361C105.837 14.001 105.946 13.5335 105.946 12.9586C105.946 12.1258 105.747 11.5105 105.348 11.1129C104.955 10.7153 104.319 10.5165 103.439 10.5165H102.563Z" fill="#242424"/>
<path d="M117.213 17.746H113.288L112.821 18.8099C112.668 19.1645 112.592 19.4573 112.592 19.6884C112.592 19.9946 112.717 20.2203 112.968 20.3654C113.116 20.4513 113.479 20.5158 114.058 20.5588V20.857H110.363V20.5588C110.762 20.4997 111.089 20.3385 111.346 20.0752C111.603 19.8066 111.92 19.2558 112.297 18.423L116.27 9.7025H116.426L120.433 18.6648C120.815 19.5137 121.129 20.0484 121.375 20.2686C121.561 20.4352 121.823 20.5319 122.162 20.5588V20.857H116.787V20.5588H117.008C117.439 20.5588 117.743 20.4997 117.917 20.3815C118.038 20.2955 118.098 20.1719 118.098 20.0107C118.098 19.914 118.081 19.8146 118.048 19.7125C118.038 19.6642 117.956 19.4627 117.803 19.1081L117.213 17.746ZM116.934 17.1496L115.279 13.3857L113.575 17.1496H116.934ZM118.745 6.19657L116.033 8.99325H115.328L116.279 6.19657H118.745Z" fill="#242424"/>
<path d="M126.816 15.8762V18.9388C126.816 19.5299 126.851 19.9033 126.922 20.0591C126.999 20.2095 127.13 20.3304 127.316 20.4218C127.501 20.5131 127.848 20.5588 128.356 20.5588V20.857H122.67V20.5588C123.183 20.5588 123.53 20.5131 123.71 20.4218C123.896 20.3251 124.024 20.2015 124.095 20.051C124.172 19.9006 124.21 19.5299 124.21 18.9388V11.8464C124.21 11.2553 124.172 10.8846 124.095 10.7341C124.024 10.5783 123.896 10.4547 123.71 10.3634C123.525 10.272 123.178 10.2264 122.67 10.2264V9.92817H127.832C129.175 9.92817 130.159 10.0195 130.781 10.2022C131.404 10.3849 131.912 10.7234 132.305 11.2177C132.699 11.7067 132.895 12.2816 132.895 12.9425C132.895 13.7484 132.6 14.4147 132.01 14.9412C131.634 15.2744 131.106 15.5242 130.429 15.6908L133.1 19.3902C133.45 19.8684 133.698 20.1666 133.846 20.2848C134.07 20.4513 134.329 20.5427 134.624 20.5588V20.857H131.126L127.545 15.8762H126.816ZM126.816 10.5165V15.3039H127.283C128.042 15.3039 128.61 15.2368 128.987 15.1024C129.364 14.9627 129.659 14.7156 129.872 14.361C130.09 14.001 130.2 13.5335 130.2 12.9586C130.2 12.1258 130 11.5105 129.602 11.1129C129.208 10.7153 128.572 10.5165 127.692 10.5165H126.816Z" fill="#242424"/>
<path d="M140.63 20.5588V20.857H134.821V20.5588H135.19C135.512 20.5588 135.771 20.5024 135.968 20.3895C136.11 20.3143 136.219 20.1854 136.296 20.0027C136.356 19.8737 136.386 19.5352 136.386 18.9872V11.798C136.386 11.2392 136.356 10.8899 136.296 10.7502C136.236 10.6105 136.113 10.4897 135.927 10.3876C135.747 10.2801 135.501 10.2264 135.19 10.2264H134.821V9.92817H140.63V10.2264H140.261C139.939 10.2264 139.68 10.2828 139.483 10.3956C139.341 10.4708 139.229 10.5998 139.147 10.7825C139.087 10.9114 139.057 11.2499 139.057 11.798V18.9872C139.057 19.546 139.087 19.8952 139.147 20.0349C139.213 20.1746 139.336 20.2982 139.516 20.4057C139.702 20.5078 139.95 20.5588 140.261 20.5588H140.63Z" fill="#242424"/>
<path d="M148.004 17.746H144.08L143.613 18.8099C143.46 19.1645 143.383 19.4573 143.383 19.6884C143.383 19.9946 143.509 20.2203 143.76 20.3654C143.908 20.4513 144.271 20.5158 144.85 20.5588V20.857H141.155V20.5588C141.553 20.4997 141.881 20.3385 142.138 20.0752C142.395 19.8066 142.711 19.2558 143.088 18.423L147.062 9.7025H147.218L151.225 18.6648C151.607 19.5137 151.921 20.0484 152.167 20.2686C152.353 20.4352 152.615 20.5319 152.953 20.5588V20.857H147.578V20.5588H147.8C148.231 20.5588 148.534 20.4997 148.709 20.3815C148.829 20.2955 148.889 20.1719 148.889 20.0107C148.889 19.914 148.873 19.8146 148.84 19.7125C148.829 19.6642 148.747 19.4627 148.594 19.1081L148.004 17.746ZM147.726 17.1496L146.071 13.3857L144.367 17.1496H147.726Z" fill="#242424"/>
<path d="M58.5462 34.754V35.0522H52.7369V34.754H53.1056C53.4279 34.754 53.6874 34.6976 53.884 34.5848C54.026 34.5096 54.1353 34.3806 54.2118 34.1979C54.2718 34.069 54.3019 33.7305 54.3019 33.1824V25.9932C54.3019 25.4344 54.2718 25.0852 54.2118 24.9455C54.1517 24.8058 54.0288 24.6849 53.843 24.5828C53.6628 24.4753 53.417 24.4216 53.1056 24.4216H52.7369V24.1234H58.5462V24.4216H58.1775C57.8552 24.4216 57.5957 24.478 57.3991 24.5909C57.2571 24.6661 57.1451 24.795 57.0632 24.9777C57.0031 25.1067 56.973 25.4452 56.973 25.9932V33.1824C56.973 33.7412 57.0031 34.0905 57.0632 34.2302C57.1287 34.3699 57.2516 34.4934 57.4319 34.6009C57.6176 34.703 57.8661 34.754 58.1775 34.754H58.5462Z" fill="#242424"/>
<path d="M66.9365 31.3287L69.9518 24.1234H74.4747V24.4216H74.1141C73.7864 24.4216 73.5242 24.478 73.3275 24.5909C73.191 24.6661 73.0817 24.7923 72.9998 24.9697C72.9397 25.0986 72.9097 25.4344 72.9097 25.9771V33.1824C72.9097 33.7412 72.9397 34.0905 72.9998 34.2302C73.0599 34.3699 73.1828 34.4934 73.3685 34.6009C73.5542 34.703 73.8028 34.754 74.1141 34.754H74.4747V35.0522H68.6736V34.754H69.0341C69.3618 34.754 69.624 34.6976 69.8207 34.5848C69.9572 34.5096 70.0665 34.3806 70.1484 34.1979C70.2085 34.069 70.2385 33.7305 70.2385 33.1824V25.0825L65.9778 35.0522H65.7812L61.455 25.155V32.852C61.455 33.3893 61.4686 33.7197 61.4959 33.8433C61.5669 34.1119 61.7199 34.3322 61.9548 34.5042C62.1951 34.6707 62.5693 34.754 63.0773 34.754V35.0522H59.2754V34.754H59.3902C59.636 34.7594 59.8654 34.7218 60.0784 34.6412C60.2915 34.5552 60.4526 34.4424 60.5618 34.3027C60.6711 34.163 60.7558 33.9669 60.8158 33.7143C60.8268 33.6552 60.8322 33.3812 60.8322 32.8923V25.9771C60.8322 25.4237 60.8022 25.0798 60.7421 24.9455C60.682 24.8058 60.5591 24.6849 60.3734 24.5828C60.1877 24.4753 59.9391 24.4216 59.6278 24.4216H59.2754V24.1234H63.8147L66.9365 31.3287Z" fill="#242424"/>
<path d="M79.3171 30.1036V33.134C79.3171 33.7251 79.3526 34.0985 79.4236 34.2543C79.5001 34.4048 79.6312 34.5257 79.8169 34.617C80.0081 34.7084 80.355 34.754 80.8575 34.754V35.0522H75.2121V34.754C75.7256 34.754 76.0724 34.7084 76.2527 34.617C76.4384 34.5203 76.5668 34.3967 76.6378 34.2463C76.7143 34.0958 76.7525 33.7251 76.7525 33.134V26.0416C76.7525 25.4505 76.7143 25.0798 76.6378 24.9294C76.5668 24.7735 76.4384 24.65 76.2527 24.5586C76.067 24.4673 75.7201 24.4216 75.2121 24.4216V24.1234H80.0545C81.6496 24.1234 82.794 24.4028 83.4877 24.9616C84.1814 25.5204 84.5283 26.2189 84.5283 27.0571C84.5283 27.7663 84.3043 28.3735 83.8564 28.8786C83.4085 29.3836 82.7912 29.7275 82.0046 29.9102C81.4748 30.0392 80.5789 30.1036 79.3171 30.1036ZM79.3171 24.7521V29.475C79.4974 29.4857 79.6339 29.4911 79.7268 29.4911C80.3932 29.4911 80.9067 29.2977 81.2672 28.9108C81.6277 28.5186 81.808 27.9141 81.808 27.0974C81.808 26.2861 81.6277 25.6923 81.2672 25.3162C80.9067 24.9401 80.3686 24.7521 79.653 24.7521H79.3171Z" fill="#242424"/>
<path d="M89.6165 24.7521V29.201H89.8378C90.5424 29.201 91.0531 28.9833 91.37 28.5481C91.6868 28.1129 91.8889 27.4708 91.9763 26.6219H92.2877V32.3442H91.9763C91.9108 31.7209 91.7715 31.2105 91.5584 30.8129C91.3509 30.4153 91.1078 30.1493 90.8292 30.015C90.5506 29.8753 90.1464 29.8054 89.6165 29.8054V32.8842C89.6165 33.486 89.6411 33.854 89.6903 33.9884C89.7449 34.1227 89.8432 34.2328 89.9852 34.3188C90.1273 34.4048 90.3567 34.4478 90.6735 34.4478H91.3372C92.3751 34.4478 93.2054 34.2113 93.8281 33.7385C94.4562 33.2657 94.9069 32.5457 95.18 31.5785H95.4832L94.9834 35.0522H85.3804V34.754H85.7491C86.0714 34.754 86.3309 34.6976 86.5275 34.5848C86.6695 34.5096 86.7788 34.3806 86.8553 34.1979C86.9154 34.069 86.9454 33.7305 86.9454 33.1824V25.9932C86.9454 25.4989 86.9317 25.1953 86.9044 25.0825C86.8498 24.8944 86.7488 24.7494 86.6013 24.6473C86.3937 24.4968 86.1096 24.4216 85.7491 24.4216H85.3804V24.1234H94.6802V27.3553H94.3689C94.2104 26.5655 93.9865 25.9986 93.697 25.6547C93.4129 25.3109 93.0087 25.0583 92.4843 24.8971C92.1784 24.8004 91.6049 24.7521 90.7636 24.7521H89.6165Z" fill="#242424"/>
<path d="M100.694 30.0714V33.134C100.694 33.7251 100.73 34.0985 100.801 34.2543C100.877 34.4048 101.008 34.5257 101.194 34.617C101.38 34.7084 101.727 34.754 102.235 34.754V35.0522H96.5484V34.754C97.0618 34.754 97.4087 34.7084 97.589 34.617C97.7747 34.5203 97.903 34.3967 97.9741 34.2463C98.0505 34.0958 98.0888 33.7251 98.0888 33.134V26.0416C98.0888 25.4505 98.0505 25.0798 97.9741 24.9294C97.903 24.7735 97.7747 24.65 97.589 24.5586C97.4032 24.4673 97.0564 24.4216 96.5484 24.4216V24.1234H101.71C103.054 24.1234 104.037 24.2147 104.66 24.3974C105.283 24.5801 105.791 24.9186 106.184 25.4129C106.577 25.9019 106.774 26.4768 106.774 27.1377C106.774 27.9437 106.479 28.6099 105.889 29.1365C105.512 29.4696 104.985 29.7195 104.308 29.886L106.979 33.5854C107.328 34.0636 107.577 34.3618 107.725 34.48C107.948 34.6466 108.208 34.7379 108.503 34.754V35.0522H105.004L101.424 30.0714H100.694ZM100.694 24.7118V29.4992H101.161C101.921 29.4992 102.489 29.432 102.866 29.2977C103.243 29.158 103.538 28.9108 103.751 28.5562C103.969 28.1962 104.078 27.7287 104.078 27.1538C104.078 26.321 103.879 25.7058 103.48 25.3082C103.087 24.9106 102.451 24.7118 101.571 24.7118H100.694Z" fill="#242424"/>
<path d="M115.345 31.9412H111.42L110.953 33.0051C110.8 33.3597 110.723 33.6525 110.723 33.8836C110.723 34.1899 110.849 34.4155 111.1 34.5606C111.248 34.6466 111.611 34.711 112.19 34.754V35.0522H108.495V34.754C108.893 34.6949 109.221 34.5337 109.478 34.2705C109.735 34.0018 110.051 33.4511 110.428 32.6182L114.402 23.8977H114.558L118.565 32.86C118.947 33.709 119.261 34.2436 119.507 34.4639C119.693 34.6304 119.955 34.7272 120.294 34.754V35.0522H114.919V34.754H115.14C115.571 34.754 115.874 34.6949 116.049 34.5767C116.169 34.4907 116.23 34.3672 116.23 34.206C116.23 34.1093 116.213 34.0099 116.18 33.9078C116.169 33.8594 116.087 33.6579 115.935 33.3033L115.345 31.9412ZM115.066 31.3448L113.411 27.581L111.707 31.3448H115.066Z" fill="#242424"/>
<path d="M129.831 24.1234V27.0813H129.536C129.361 26.3989 129.167 25.9099 128.954 25.6144C128.741 25.3135 128.449 25.0744 128.078 24.8971C127.87 24.8004 127.507 24.7521 126.988 24.7521H126.16V33.1824C126.16 33.7412 126.19 34.0905 126.25 34.2302C126.316 34.3699 126.439 34.4934 126.619 34.6009C126.805 34.703 127.056 34.754 127.373 34.754H127.742V35.0522H121.924V34.754H122.293C122.615 34.754 122.875 34.6976 123.071 34.5848C123.213 34.5096 123.325 34.3806 123.407 34.1979C123.467 34.069 123.497 33.7305 123.497 33.1824V24.7521H122.694C121.946 24.7521 121.402 24.9079 121.064 25.2195C120.589 25.6547 120.288 26.2753 120.162 27.0813H119.851V24.1234H129.831Z" fill="#242424"/>
<path d="M134.895 30.0714V33.134C134.895 33.7251 134.93 34.0985 135.001 34.2543C135.078 34.4048 135.209 34.5257 135.394 34.617C135.58 34.7084 135.927 34.754 136.435 34.754V35.0522H130.749V34.754C131.262 34.754 131.609 34.7084 131.789 34.617C131.975 34.5203 132.103 34.3967 132.174 34.2463C132.251 34.0958 132.289 33.7251 132.289 33.134V26.0416C132.289 25.4505 132.251 25.0798 132.174 24.9294C132.103 24.7735 131.975 24.65 131.789 24.5586C131.604 24.4673 131.257 24.4216 130.749 24.4216V24.1234H135.911C137.254 24.1234 138.238 24.2147 138.86 24.3974C139.483 24.5801 139.991 24.9186 140.384 25.4129C140.778 25.9019 140.974 26.4768 140.974 27.1377C140.974 27.9437 140.679 28.6099 140.089 29.1365C139.713 29.4696 139.185 29.7195 138.508 29.886L141.179 33.5854C141.529 34.0636 141.777 34.3618 141.925 34.48C142.149 34.6466 142.408 34.7379 142.703 34.754V35.0522H139.205L135.624 30.0714H134.895ZM134.895 24.7118V29.4992H135.362C136.121 29.4992 136.689 29.432 137.066 29.2977C137.443 29.158 137.738 28.9108 137.951 28.5562C138.169 28.1962 138.279 27.7287 138.279 27.1538C138.279 26.321 138.079 25.7058 137.68 25.3082C137.287 24.9106 136.651 24.7118 135.771 24.7118H134.895Z" fill="#242424"/>
<path d="M148.709 34.754V35.0522H142.9V34.754H143.269C143.591 34.754 143.85 34.6976 144.047 34.5848C144.189 34.5096 144.298 34.3806 144.375 34.1979C144.435 34.069 144.465 33.7305 144.465 33.1824V25.9932C144.465 25.4344 144.435 25.0852 144.375 24.9455C144.315 24.8058 144.192 24.6849 144.006 24.5828C143.826 24.4753 143.58 24.4216 143.269 24.4216H142.9V24.1234H148.709V24.4216H148.34C148.018 24.4216 147.759 24.478 147.562 24.5909C147.42 24.6661 147.308 24.795 147.226 24.9777C147.166 25.1067 147.136 25.4452 147.136 25.9932V33.1824C147.136 33.7412 147.166 34.0905 147.226 34.2302C147.292 34.3699 147.415 34.4934 147.595 34.6009C147.781 34.703 148.029 34.754 148.34 34.754H148.709Z" fill="#242424"/>
<path d="M159.345 24.1234L152.814 34.4397H154.928C155.928 34.4397 156.627 34.3779 157.026 34.2543C157.676 34.0609 158.236 33.7063 158.705 33.1905C159.175 32.6693 159.5 31.9735 159.68 31.103H160L159.549 35.0522H149.373L155.911 24.7198H154.264C153.625 24.7198 153.205 24.7386 153.003 24.7762C152.62 24.8461 152.26 24.9858 151.921 25.1953C151.588 25.3995 151.309 25.6735 151.085 26.0174C150.867 26.3613 150.695 26.7965 150.569 27.3231H150.266L150.569 24.1234H159.345Z" fill="#242424"/>
<path d="M20.2896 32.8846H21.7925V20.3491H20.2896V19.2528H24.7984V20.3491H23.2954V32.8846H24.7984V34.1734H20.2896V32.8846Z" fill="#242424"/>
<path fill-rule="evenodd" clip-rule="evenodd" d="M19.9955 32.5168H21.4428V20.7169H19.9955V18.8678H25.0924V20.7169H23.6452V32.5168H25.0924V34.3659H19.9955V32.5168ZM23.2676 32.8925V20.3412H24.7149V19.2435H20.3731V20.3412H21.8203V32.8925H20.3731V33.9902H24.7149V32.8925H23.2676Z" fill="#242424"/>
<path d="M22.6175 29.4435L27.0773 20.6005H30.5814V21.7084H29.1111V30.3701H30.5814V31.478H26.1706V30.3701H27.6409V22.4738H27.5429L23.0096 31.478H21.9559L17.4471 22.4738H17.3491V30.3701H18.8193V31.478H14.4085V30.3701H15.8788V21.7084H14.4085V20.6005H18.1087L22.5195 29.4435H22.6175Z" fill="#242424"/>
<path fill-rule="evenodd" clip-rule="evenodd" d="M26.8452 20.2154H30.9735V22.0822H29.5016V29.9963H30.9735V31.8631H25.7914V29.9963H27.2633V23.8862L23.2475 31.8631H21.7174L17.7266 23.893V29.9963H19.1985V31.8631H14.0165V29.9963H15.4884V22.0822H14.0165V20.2154H18.3422L22.5702 28.6924L26.8452 20.2154ZM18.1039 20.5942H14.3997V21.7034H15.8716V30.3751H14.3997V31.4843H18.8153V30.3751H17.3434V22.4697H17.4416L21.9553 31.4843H23.0101L27.5484 22.4697H27.6465V30.3751H26.1747V31.4843H30.5903V30.3751H29.1184V21.7034H30.5903V20.5942H27.0823L22.6176 29.4474H22.5195L18.1039 20.5942Z" fill="#242424"/>
<path d="M13.6228 0.0263984C13.7565 -0.0524086 13.9217 0.0561894 13.8967 0.207363C13.7969 0.809267 13.6666 1.30053 13.4796 1.71889C13.3994 1.89844 13.6231 2.14331 13.8047 2.06188C13.9968 1.97575 14.1905 1.89242 14.3856 1.81193C14.4065 1.80332 14.426 1.79077 14.4426 1.77555C16.2038 0.151877 17.3324 -0.276424 19.3313 0.398188C19.4631 0.442656 19.4968 0.609075 19.3938 0.701222C17.8728 2.06201 16.8266 2.57301 15.3577 2.2611C15.3213 2.25337 15.283 2.25573 15.2482 2.26884C15.2398 2.27202 15.2313 2.2752 15.2229 2.27839C15.012 2.35825 15.1252 3.03256 15.3322 3.12197C15.5204 3.20331 15.7109 3.30533 15.9085 3.42651C16.0217 3.49591 16.0209 3.65626 15.9082 3.72642C14.4811 4.61468 13.482 4.69634 11.7227 4.09511C11.6676 4.0763 11.606 4.08276 11.5571 4.11388C11.27 4.29649 10.988 4.48615 10.7113 4.68258C10.5325 4.80955 10.7553 5.27588 10.9748 5.29794C11.3087 5.33151 11.6493 5.42962 12.0204 5.58044C12.1437 5.63054 12.17 5.7888 12.0706 5.87626C10.8495 6.95101 9.89834 7.21114 8.16491 6.94425C8.10392 6.93486 8.04122 6.95463 7.99843 6.99833C7.81774 7.1829 7.64068 7.37092 7.46738 7.5623C7.32398 7.72065 7.60195 8.0859 7.81618 8.06061C8.13743 8.02268 8.47958 8.04067 8.86085 8.09942C8.99268 8.11974 9.05587 8.26749 8.98015 8.37539C8.05644 9.69177 7.19962 10.1664 5.47616 10.3099C5.4161 10.3149 5.36106 10.3473 5.32967 10.3979C5.16112 10.6693 4.99909 10.9452 4.84379 11.2251C4.7387 11.4145 5.12389 11.7209 5.32935 11.6447C5.67673 11.5158 6.06233 11.4597 6.50977 11.4483C6.64316 11.4449 6.73269 11.579 6.67807 11.6985C6.01177 13.1569 5.25645 13.7758 3.58819 14.2227C3.52737 14.239 3.47771 14.2837 3.45761 14.3424C3.35155 14.6521 3.25314 14.9653 3.1626 15.2816C3.10311 15.4895 3.54828 15.7024 3.7309 15.5822C4.04675 15.3742 4.41824 15.2333 4.86353 15.1244C4.99301 15.0927 5.10997 15.2046 5.08297 15.333C4.75374 16.898 4.15282 17.6627 2.6233 18.4532C2.56719 18.4822 2.52848 18.5368 2.52208 18.5988C2.45388 19.2585 2.41895 19.9279 2.41895 20.6053C2.41895 20.6819 2.5373 20.7031 2.57113 20.6341C2.90209 19.9595 3.41433 19.5766 4.18289 19.262C4.30606 19.2116 4.43879 19.3049 4.43175 19.4357C4.34912 20.9709 3.90459 21.8109 2.63264 22.7693C2.57964 22.8092 2.55082 22.8737 2.55867 22.9388C2.58932 23.193 2.62491 23.4457 2.66534 23.6968C2.6998 23.9107 3.23307 23.9294 3.35379 23.7481C3.52316 23.4937 3.74455 23.2557 4.01754 23.014C4.11665 22.9263 4.27338 22.9711 4.31102 23.0968C4.77537 24.6483 4.60181 25.605 3.59958 27.0367C3.5652 27.0858 3.55595 27.1487 3.57634 27.2048C3.69653 27.5356 3.82551 27.8624 3.96299 28.1847C4.0455 28.3782 4.45983 28.2954 4.52384 28.0953C4.64345 27.7213 4.85819 27.3719 5.1596 27.0019C5.24296 26.8996 5.40499 26.9189 5.46281 27.037C6.15374 28.4482 6.16268 29.4039 5.47852 30.8903C5.45233 30.9472 5.45605 31.0138 5.48997 31.0666C5.66972 31.3465 5.85646 31.6215 6.04996 31.8916C6.17604 32.0675 6.61663 31.8684 6.63686 31.6541C6.67215 31.2803 6.79664 30.9069 6.99384 30.4972C7.05087 30.3787 7.21312 30.3607 7.29717 30.4625C8.32 31.7011 8.54338 32.6407 8.20101 34.2974C8.18842 34.3583 8.20697 34.4223 8.25167 34.4663C8.50017 34.7112 8.7552 34.9496 9.0165 35.1813C9.17728 35.3239 9.53026 35.0581 9.49802 34.8477C9.43515 34.4373 9.48289 34.0113 9.60962 33.5251C9.64271 33.3981 9.79851 33.3502 9.90071 33.4344C11.1309 34.4486 11.5365 35.3215 11.5299 36.9761C11.5296 37.0396 11.5618 37.0998 11.6162 37.1341C11.9417 37.3396 12.2736 37.536 12.6116 37.723C12.7951 37.8246 13.0479 37.5364 12.9709 37.3439C12.8042 36.9269 12.764 36.4725 12.8009 35.9329C12.8099 35.8022 12.9541 35.7271 13.0702 35.7916C14.4353 36.5502 15.0024 37.317 15.3084 38.8685C15.3209 38.9321 15.3659 38.9858 15.4277 39.0084C15.9187 39.1882 16.4189 39.3496 16.9273 39.4917C17.1379 39.5506 17.3421 39.1361 17.2167 38.9597C16.9748 38.6197 16.8249 38.2175 16.7184 37.7269C16.6905 37.5987 16.8084 37.4877 16.9381 37.5185C18.5106 37.8927 19.2687 38.5036 20.017 40.0127C20.0454 40.07 20.1015 40.1101 20.166 40.1171C20.5251 40.1566 20.887 40.1866 21.2516 40.2071C21.331 40.2116 21.403 40.1653 21.4421 40.0973C21.6332 39.7658 21.9957 39.542 22.4113 39.542C22.827 39.542 23.1894 39.7658 23.3805 40.0973C23.4197 40.1653 23.4917 40.2116 23.571 40.2071C23.9356 40.1866 24.2976 40.1566 24.6567 40.1171C24.7211 40.1101 24.7773 40.07 24.8057 40.0127C25.554 38.5036 26.3121 37.8927 27.8846 37.5185C28.0143 37.4877 28.1321 37.5987 28.1043 37.7269C27.9978 38.2175 27.8478 38.6197 27.606 38.9597C27.4806 39.1361 27.6848 39.5506 27.8954 39.4917C28.4038 39.3496 28.904 39.1882 29.395 39.0084C29.4568 38.9858 29.5017 38.9321 29.5143 38.8685C29.8203 37.317 30.3874 36.5502 31.7524 35.7916C31.8686 35.7271 32.0128 35.8022 32.0217 35.9329C32.0587 36.4725 32.0184 36.9269 31.8518 37.3439C31.7748 37.5364 32.0276 37.8246 32.2111 37.723C32.5491 37.536 32.881 37.3396 33.2064 37.1341C33.2608 37.0998 33.293 37.0396 33.2927 36.9761C33.2861 35.3215 33.6918 34.4486 34.9219 33.4344C35.0241 33.3502 35.1799 33.3981 35.213 33.5251C35.3397 34.0114 35.3875 34.4373 35.3246 34.8477C35.2924 35.0581 35.6454 35.3239 35.8061 35.1813C36.0674 34.9496 36.3225 34.7112 36.5709 34.4663C36.6157 34.4223 36.6342 34.3584 36.6216 34.2974C36.2792 32.6407 36.5026 31.7011 37.5254 30.4625C37.6095 30.3607 37.7717 30.3787 37.8288 30.4972C38.026 30.9068 38.1505 31.2803 38.1858 31.6541C38.206 31.8683 38.6466 32.0675 38.7727 31.8916C38.9662 31.6215 39.1529 31.3465 39.3327 31.0667C39.3666 31.0138 39.3703 30.9472 39.3441 30.8903C38.6599 29.4039 38.6689 28.4482 39.3598 27.037C39.4176 26.9189 39.5796 26.8996 39.663 27.0019C39.9644 27.3719 40.1792 27.7213 40.2988 28.0953C40.3628 28.2954 40.7771 28.3782 40.8597 28.1848C40.9971 27.8624 41.1261 27.5356 41.2463 27.2048C41.2667 27.1487 41.2574 27.0858 41.2231 27.0367C40.2208 25.605 40.0473 24.6483 40.5116 23.0968C40.5492 22.9711 40.706 22.9263 40.8051 23.014C41.0781 23.2557 41.2995 23.4937 41.4688 23.7481C41.5895 23.9294 42.1228 23.9107 42.1573 23.6967C42.1977 23.4456 42.2333 23.193 42.264 22.9388C42.2718 22.8737 42.243 22.8092 42.19 22.7693C40.9181 21.8109 40.4735 20.9709 40.3909 19.4357C40.3838 19.3048 40.5166 19.2115 40.6397 19.262C41.4083 19.5766 41.9205 19.9595 42.2515 20.6341C42.2853 20.7031 42.4037 20.6819 42.4037 20.6053C42.4037 19.9279 42.3688 19.2585 42.3006 18.5988C42.2942 18.5368 42.2555 18.4822 42.1993 18.4532C40.6699 17.6627 40.0689 16.898 39.7397 15.333C39.7127 15.2046 39.8297 15.0927 39.9592 15.1244C40.4044 15.2333 40.7759 15.3742 41.0918 15.5822C41.2744 15.7024 41.7195 15.4895 41.6601 15.2817C41.5695 14.9653 41.4711 14.6521 41.365 14.3424C41.3449 14.2837 41.2953 14.239 41.2345 14.2227C39.5662 13.7758 38.8109 13.1569 38.1446 11.6985C38.09 11.579 38.1795 11.4449 38.3129 11.4483C38.7603 11.4597 39.1459 11.5158 39.4933 11.6447C39.6988 11.7209 40.0839 11.4145 39.9789 11.2251C39.8236 10.9452 39.6615 10.6694 39.493 10.3979C39.4616 10.3473 39.4065 10.3149 39.3465 10.3099C37.623 10.1664 36.7662 9.69176 35.8425 8.37539C35.7668 8.26749 35.83 8.11974 35.9618 8.09942C36.3431 8.04067 36.6852 8.02268 37.0065 8.06061C37.2207 8.0859 37.4987 7.72066 37.3553 7.56232C37.182 7.37093 37.0049 7.1829 36.8242 6.99833C36.7814 6.95463 36.7187 6.93486 36.6577 6.94425C34.9243 7.21114 33.9731 6.95101 32.752 5.87626C32.6526 5.7888 32.6789 5.63054 32.8022 5.58044C33.1734 5.42962 33.5139 5.33151 33.8478 5.29794C34.0673 5.27588 34.2901 4.80954 34.1113 4.68258C33.8346 4.48614 33.5526 4.29649 33.2655 4.11388C33.2166 4.08277 33.155 4.0763 33.1 4.09511C31.3407 4.69634 30.3415 4.61468 28.9144 3.72642C28.8017 3.65626 28.801 3.49591 28.9142 3.42651C29.1118 3.30532 29.3022 3.2033 29.4905 3.12196C29.6975 3.03255 29.8107 2.35826 29.5998 2.27841C29.5913 2.27521 29.5829 2.27202 29.5745 2.26884C29.5397 2.25573 29.5013 2.25337 29.4649 2.2611C27.9961 2.573 26.9499 2.06201 25.4289 0.701223C25.3259 0.609075 25.3595 0.442656 25.4913 0.398188C27.4903 -0.276426 28.6189 0.15188 30.3801 1.77556C30.3966 1.79078 30.4162 1.80334 30.437 1.81195C30.6322 1.89243 30.8259 1.97577 31.018 2.0619C31.1996 2.14333 31.4233 1.89845 31.3431 1.7189C31.1561 1.30054 31.0258 0.809271 30.926 0.207363C30.901 0.0561892 31.0661 -0.0524088 31.1999 0.0263981C33.0534 1.11867 33.5423 1.93001 33.49 3.26405C33.4874 3.33127 33.5206 3.3955 33.5783 3.43176C34.0776 3.74557 34.5624 4.07981 35.0313 4.43328C35.1942 4.55606 35.4936 4.34293 35.4505 4.14577C35.3614 3.73778 35.325 3.27622 35.3275 2.73158C35.3282 2.57842 35.5095 2.49818 35.6281 2.59758C37.3307 4.02407 37.6412 4.9164 37.311 6.30251C37.2961 6.36494 37.3138 6.43112 37.3591 6.47731C37.7073 6.83254 38.0425 7.20016 38.364 7.57941C38.4984 7.73808 38.8753 7.57602 38.8778 7.3696C38.8832 6.93766 38.9586 6.46372 39.097 5.91149C39.1342 5.76276 39.3296 5.72652 39.4212 5.85048C40.7464 7.64371 40.8259 8.5834 40.1565 9.87069C40.1262 9.92903 40.128 9.99908 40.1626 10.0551C40.3983 10.4368 40.6217 10.8267 40.832 11.2243C40.927 11.4038 41.2938 11.334 41.3389 11.1366C41.4284 10.7447 41.5818 10.3261 41.7988 9.85249C41.8628 9.71281 42.0616 9.71185 42.1289 9.85002C43.1029 11.8497 43.0077 12.788 42.1115 13.936C42.0726 13.9859 42.0607 14.0518 42.081 14.1114C42.2284 14.5422 42.3616 14.9794 42.4799 15.4225C42.532 15.6177 42.9017 15.6293 42.9897 15.447C43.1628 15.0884 43.4024 14.7171 43.7139 14.3069C43.8072 14.1841 44.0015 14.2254 44.0368 14.3746C44.5474 16.5345 44.2475 17.4303 43.1188 18.361C43.07 18.4013 43.0438 18.4627 43.0503 18.5249C43.1209 19.209 43.1571 19.903 43.1571 20.6053C43.1571 20.6524 43.2314 20.6661 43.2506 20.623C43.4882 20.0872 43.8839 19.5833 44.477 19.0081C44.588 18.9005 44.7738 18.9702 44.7859 19.1229C44.9699 21.4578 44.4757 22.265 43.0481 23.0548C43.0414 23.0585 43.0328 23.0543 43.0318 23.0468C43.0302 23.0343 43.0112 23.0345 43.0096 23.047C42.9486 23.5489 42.869 24.0451 42.7715 24.5351C42.7321 24.733 43.0602 24.9017 43.2213 24.7767C43.5658 24.5093 43.9875 24.2688 44.5103 24.0269C44.6513 23.9616 44.8031 24.0878 44.7628 24.2357C44.1871 26.3486 43.5043 27.0117 42.1021 27.3174C42.0374 27.3315 41.9838 27.377 41.9616 27.4383C41.8102 27.8561 41.6453 28.2675 41.4675 28.6722C41.3831 28.8642 41.7232 29.1379 41.9134 29.0439C42.2636 28.8709 42.6705 28.7247 43.1528 28.5895C43.3028 28.5475 43.4317 28.6962 43.3676 28.8358C42.4174 30.9043 41.6103 31.4144 40.0705 31.4615C40.0071 31.4635 39.948 31.4957 39.9138 31.5483C39.6817 31.9056 39.4386 32.2553 39.1849 32.597C39.0634 32.7607 39.2925 33.0541 39.4927 33.0053C39.8852 32.9097 40.3297 32.8567 40.8505 32.8337C41.0063 32.8269 41.0968 33.0007 41.0016 33.122C39.6193 34.8821 38.7224 35.2186 37.2679 34.9464C37.2052 34.9347 37.1401 34.9537 37.0951 34.998C36.8078 35.2807 36.512 35.5552 36.2083 35.821C36.053 35.957 36.2207 36.3026 36.4287 36.2949C36.8149 36.2807 37.2406 36.3121 37.7281 36.3826C37.8824 36.4049 37.9376 36.5925 37.8206 36.6938C36.1014 38.183 35.1535 38.3312 33.749 37.7677C33.6912 37.7445 33.6249 37.7497 33.5723 37.7828C33.2809 37.9658 32.9846 38.1418 32.6835 38.3106C32.4969 38.4153 32.6078 38.8567 32.8196 38.8925C33.169 38.9516 33.5448 39.0523 33.9637 39.1931C34.1113 39.2427 34.1307 39.4371 33.9969 39.5158C31.9533 40.717 30.9971 40.6441 29.6435 39.7443C29.6347 39.7385 29.6345 39.7257 29.6433 39.7199L29.6519 39.7143C29.6567 39.7112 29.6529 39.7038 29.6475 39.7058C29.0953 39.9076 28.5321 40.0871 27.9588 40.2429C27.7611 40.2967 27.7544 40.6567 27.9414 40.7395C28.2932 40.8953 28.6598 41.109 29.0638 41.3845C29.1919 41.4719 29.1564 41.664 29.0058 41.7036C26.8104 42.2821 25.891 42.0106 24.8979 40.9162C24.8564 40.8705 24.7948 40.8466 24.7329 40.8533C24.361 40.894 23.9861 40.925 23.6086 40.9461C23.5293 40.9506 23.4624 41.0036 23.4304 41.075C23.258 41.4595 22.8666 41.7279 22.4113 41.7279C21.9561 41.7279 21.5647 41.4595 21.3923 41.075C21.3603 41.0036 21.2934 40.9506 21.2141 40.9461C20.8365 40.925 20.4617 40.894 20.0898 40.8533C20.0279 40.8466 19.9662 40.8705 19.9248 40.9162C18.9317 42.0106 18.0123 42.2821 15.8169 41.7036C15.6663 41.664 15.6307 41.4719 15.7588 41.3845C16.1629 41.109 16.5295 40.8953 16.8813 40.7395C17.0682 40.6567 17.0615 40.2967 16.8639 40.2429C16.2976 40.089 15.7411 39.912 15.1955 39.7132C15.1874 39.7103 15.1816 39.7213 15.1887 39.7261C15.193 39.7289 15.193 39.7352 15.1887 39.738C13.8301 40.6438 12.8742 40.7198 10.8258 39.5158C10.692 39.4371 10.7113 39.2427 10.8589 39.1931C11.2779 39.0523 11.6537 38.9516 12.003 38.8925C12.2148 38.8567 12.3257 38.4153 12.1391 38.3106C11.8381 38.1418 11.5417 37.9658 11.2504 37.7828C11.1977 37.7497 11.1315 37.7445 11.0736 37.7677C9.66918 38.3312 8.7212 38.183 7.00199 36.6938C6.88503 36.5925 6.94021 36.4049 7.0945 36.3826C7.58204 36.3121 8.00779 36.2807 8.39399 36.2949C8.60192 36.3026 8.76969 35.957 8.61435 35.821C8.31061 35.5552 8.01488 35.2807 7.72757 34.998C7.68253 34.9537 7.6174 34.9347 7.55477 34.9464C6.10025 35.2186 5.20337 34.8822 3.82105 33.122C3.72581 33.0008 3.8163 32.8269 3.97209 32.8337C4.49294 32.8567 4.93741 32.9097 5.32989 33.0053C5.53014 33.0541 5.75929 32.7607 5.63773 32.597C5.38404 32.2553 5.14091 31.9056 4.90881 31.5483C4.87468 31.4958 4.81555 31.4635 4.75212 31.4615C3.21231 31.4144 2.40522 30.9043 1.45503 28.8358C1.3909 28.6962 1.51986 28.5475 1.66983 28.5895C2.1521 28.7247 2.55905 28.8709 2.90919 29.0439C3.09941 29.1379 3.43956 28.8642 3.35518 28.6722C3.17733 28.2675 3.01245 27.8561 2.86106 27.4383C2.83883 27.377 2.78524 27.3315 2.72052 27.3174C1.31832 27.0117 0.635584 26.3486 0.0598712 24.2357C0.0195565 24.0878 0.17132 23.9616 0.3124 24.0269C0.835167 24.2688 1.25683 24.5093 1.60139 24.7767C1.76249 24.9017 2.0905 24.733 2.05113 24.5351C1.95364 24.0451 1.87404 23.5489 1.81301 23.0471C1.81149 23.0345 1.79251 23.0343 1.79088 23.0469C1.78991 23.0543 1.78131 23.0585 1.77461 23.0548C0.346964 22.265 -0.147175 21.4578 0.0368315 19.1229C0.0488656 18.9702 0.234671 18.9006 0.345648 19.0082C0.938803 19.5833 1.3345 20.0872 1.57211 20.623C1.59123 20.6661 1.66556 20.6524 1.66556 20.6053C1.66556 19.903 1.70175 19.209 1.77238 18.525C1.77881 18.4627 1.75264 18.4013 1.70387 18.3611C0.575162 17.4303 0.275182 16.5346 0.785874 14.3746C0.821149 14.2254 1.01546 14.1841 1.10871 14.3069C1.42026 14.7171 1.65979 15.0884 1.83294 15.447C1.92094 15.6293 2.29064 15.6177 2.34275 15.4225C2.46107 14.9794 2.5942 14.5422 2.7416 14.1115C2.76199 14.0519 2.75009 13.9859 2.71114 13.936C1.81497 12.788 1.71975 11.8497 2.69376 9.85002C2.76106 9.71185 2.95988 9.71281 3.02387 9.85249C3.24085 10.3261 3.39426 10.7447 3.48378 11.1366C3.52885 11.334 3.89568 11.4038 3.99062 11.2243C4.20099 10.8267 4.42431 10.4368 4.66005 10.0551C4.69463 9.99908 4.6965 9.92902 4.66616 9.87069C3.99681 8.5834 4.07622 7.64371 5.40147 5.85048C5.49308 5.72652 5.68846 5.76276 5.72571 5.91148C5.86402 6.46372 5.93946 6.93766 5.94482 7.3696C5.94738 7.57601 6.32422 7.73807 6.4587 7.57941C6.78014 7.20015 7.11534 6.83253 7.46354 6.4773C7.50882 6.43111 7.52657 6.36493 7.5117 6.3025C7.18148 4.91639 7.49193 4.02406 9.19455 2.59758C9.3132 2.49818 9.49446 2.57842 9.49516 2.73158C9.49766 3.27622 9.46124 3.73777 9.37214 4.14577C9.32909 4.34293 9.62848 4.55605 9.79136 4.43328C10.2603 4.0798 10.7451 3.74555 11.2444 3.43174C11.3021 3.39548 11.3353 3.33125 11.3327 3.26403C11.2804 1.93 11.7693 1.11866 13.6228 0.0263984Z" fill="#242424"/>
<path d="M22.1515 5.60992C22.2321 5.77565 22.3103 6.06268 22.3103 6.19359V6.22601L22.2345 6.21641C22.0342 6.18998 21.8205 6.12874 21.669 6.05067C21.6226 6.02665 21.5799 6.00624 21.5762 6.00384C21.5713 6.00143 21.5786 6.03986 21.5908 6.0879C21.6421 6.27765 21.6421 6.52625 21.5908 6.73882C21.5786 6.78926 21.5701 6.8301 21.5713 6.8301C21.5737 6.8301 21.6177 6.80848 21.6702 6.78206C21.8266 6.7052 22.0367 6.64755 22.2541 6.62113L22.3139 6.61392L22.3054 6.69559C22.2797 6.93698 22.1466 7.30688 22.0757 7.32849C22.0354 7.3417 21.8669 7.47381 21.8205 7.52905C21.7142 7.65516 21.6519 7.77525 21.6141 7.92897C21.5945 8.00944 21.5921 8.01304 21.5493 8.02265C21.5261 8.02865 21.4846 8.05147 21.4577 8.07429L21.4089 8.11392L21.4015 8.06829C21.3918 8.00463 21.3331 7.93138 21.2696 7.90015C21.1719 7.85451 21.0253 7.87493 20.9618 7.94459L20.9386 7.97101L20.9117 7.91336C20.8617 7.80768 20.7749 7.76084 20.6479 7.76925C20.5697 7.77525 20.505 7.81008 20.4659 7.87013L20.4439 7.90255L20.4256 7.86773C20.3389 7.70439 20.0897 7.69599 19.9823 7.85331L19.9432 7.90976L19.909 7.87253C19.865 7.82809 19.8271 7.80768 19.7624 7.79807C19.6183 7.77405 19.4656 7.89295 19.4644 8.02985C19.4644 8.06348 19.4607 8.06829 19.4436 8.06108C19.3618 8.02625 19.319 8.01785 19.2714 8.02385C19.1297 8.04307 19.0369 8.14875 19.0369 8.29046C19.0369 8.3421 19.0357 8.3421 19.0051 8.3313C18.9245 8.30127 18.8085 8.33009 18.7389 8.39855C18.6924 8.44419 18.6705 8.49823 18.6705 8.56428C18.6705 8.60872 18.6644 8.62193 18.6326 8.64835C18.6118 8.66516 18.5837 8.67957 18.5691 8.67957C18.5544 8.67957 18.5263 8.68798 18.5056 8.69879C18.4763 8.7132 18.4689 8.7144 18.464 8.70119C18.4616 8.69278 18.4359 8.66276 18.4079 8.63634C18.3126 8.54627 18.1733 8.53906 18.0695 8.62073C18.017 8.66156 18.0109 8.66276 18.0109 8.63394C18.0109 8.59791 17.9523 8.52585 17.8973 8.49463C17.791 8.43458 17.6823 8.44539 17.5907 8.52465L17.537 8.57149L17.5223 8.53426C17.5016 8.48502 17.4442 8.43097 17.3916 8.40936C17.2903 8.36732 17.151 8.40095 17.0863 8.48142L17.0545 8.52105L17.0289 8.48382C16.9629 8.38774 16.8298 8.34451 16.7235 8.38414C16.6673 8.40575 16.5696 8.49703 16.5696 8.52945C16.5696 8.55708 16.555 8.55107 16.5147 8.50904C16.4157 8.40696 16.2533 8.40095 16.1507 8.49703C16.1092 8.53546 16.0689 8.60872 16.0689 8.64354C16.0689 8.65796 16.0652 8.66756 16.0603 8.66516C15.9369 8.60271 15.8466 8.59791 15.7586 8.64835C15.7 8.68198 15.6475 8.75403 15.634 8.82009C15.6255 8.86452 15.5864 8.88494 15.529 8.87653C15.4203 8.85852 15.2811 8.95339 15.2505 9.06388C15.2334 9.12753 15.154 9.2152 15.1027 9.22601C15.049 9.23802 14.972 9.29927 14.9452 9.35331C14.9305 9.37973 14.9171 9.43017 14.9146 9.4638C14.9122 9.50463 14.8975 9.54907 14.8743 9.5923C14.8255 9.68117 14.7558 9.88053 14.7314 10.003C14.7204 10.0583 14.7082 10.1724 14.7045 10.2588C14.6789 10.8329 14.9061 11.4478 15.3336 11.9702C15.4496 12.1107 15.6878 12.3473 15.8185 12.4494C15.8722 12.4926 15.9211 12.531 15.9272 12.5359C15.9321 12.5407 15.9052 12.5479 15.8661 12.5527C15.8258 12.5575 15.7647 12.5683 15.7293 12.5779L15.6646 12.5959L15.7269 12.6836C15.915 12.9514 16.3083 13.3057 16.7125 13.5711C16.8518 13.6624 16.8616 13.6708 16.853 13.6996C16.8481 13.7164 16.8445 13.7812 16.8445 13.8437C16.8445 13.9494 16.8481 13.965 16.8848 14.0383C16.9312 14.1307 17.0032 14.1992 17.1058 14.2484C17.1669 14.2784 17.1877 14.282 17.2964 14.282C17.4051 14.282 17.4258 14.2784 17.4881 14.2484C17.526 14.2304 17.5846 14.1908 17.6164 14.162C17.6628 14.1211 17.6811 14.1127 17.697 14.1211C17.7153 14.1319 17.7178 14.1656 17.7178 14.4862V14.8381L17.6811 14.8465C17.6286 14.8573 17.5639 14.9222 17.5468 14.981C17.5211 15.0639 17.5394 15.1371 17.6029 15.1984L17.6555 15.2512L17.504 15.5154C17.4197 15.6607 17.3513 15.782 17.3513 15.7869C17.3513 15.7905 17.4197 15.913 17.504 16.0595L17.6567 16.3261L17.6029 16.3789C17.5602 16.4222 17.5468 16.4438 17.5407 16.4906C17.5236 16.5963 17.5712 16.6864 17.6616 16.7272C17.7104 16.7488 17.8656 16.75 22.5118 16.75C27.1434 16.75 27.3131 16.7488 27.3608 16.7272C27.4194 16.7008 27.4451 16.6744 27.4707 16.6143C27.5086 16.5242 27.4878 16.4342 27.4109 16.3681L27.3644 16.3285L27.5183 16.0631C27.6026 15.9178 27.6722 15.7917 27.671 15.7844C27.671 15.7772 27.6026 15.6547 27.5196 15.513L27.3693 15.2548L27.4133 15.2128C27.4365 15.19 27.4634 15.1539 27.4719 15.1323C27.5208 15.0194 27.4499 14.8657 27.34 14.8441L27.3058 14.8369V14.491C27.3058 14.1511 27.3058 14.1451 27.3327 14.1271C27.3571 14.1103 27.362 14.1127 27.4206 14.1644C27.4548 14.1944 27.5135 14.234 27.5501 14.2508C27.6087 14.2784 27.6332 14.282 27.7394 14.282C27.8493 14.282 27.8689 14.2784 27.9348 14.2472C28.0277 14.2016 28.1168 14.1151 28.1584 14.0262C28.1865 13.9674 28.1913 13.9422 28.1913 13.8437C28.1913 13.7812 28.1877 13.7164 28.1828 13.6996C28.1742 13.6708 28.184 13.6624 28.3232 13.5711C28.7275 13.3057 29.1208 12.9514 29.3089 12.6836L29.3712 12.5959L29.3065 12.5779C29.2711 12.5683 29.21 12.5575 29.1697 12.5527C29.1306 12.5479 29.1037 12.5407 29.1086 12.5359C29.1147 12.531 29.1636 12.4926 29.2173 12.4494C29.348 12.3473 29.5862 12.1107 29.7022 11.9702C30.1334 11.4442 30.3606 10.8197 30.33 10.2408C30.3178 10.0066 30.2702 9.81688 30.1725 9.61632C30.1407 9.55027 30.1224 9.49382 30.1199 9.45659C30.1138 9.35451 30.0283 9.24883 29.9306 9.22601C29.8805 9.214 29.8012 9.12633 29.7853 9.06388C29.7547 8.95339 29.6155 8.85852 29.5068 8.87653C29.4494 8.88494 29.4103 8.86452 29.4018 8.82009C29.3883 8.75403 29.3358 8.68198 29.2772 8.64835C29.1892 8.59791 29.0988 8.60271 28.9767 8.66516C28.9706 8.66756 28.9669 8.65796 28.9669 8.64354C28.9669 8.63033 28.9559 8.59911 28.9437 8.57389C28.8961 8.48382 28.8057 8.42737 28.7068 8.42737C28.6433 8.42737 28.5382 8.47541 28.5101 8.51744C28.4881 8.55107 28.4662 8.55708 28.4662 8.52945C28.4662 8.50063 28.3782 8.41296 28.3257 8.39014C28.2109 8.3385 28.068 8.38294 28.002 8.48982L27.9813 8.52465L27.9495 8.48262C27.886 8.40095 27.7455 8.36732 27.6441 8.40936C27.5916 8.43097 27.5342 8.48502 27.5135 8.53426L27.4988 8.57149L27.4451 8.52465C27.3144 8.41176 27.1177 8.44659 27.0395 8.59791L27.0102 8.65435L26.965 8.61953C26.8624 8.53906 26.722 8.54627 26.6279 8.63634C26.5998 8.66276 26.5742 8.69278 26.5717 8.70119C26.5669 8.7144 26.5595 8.7132 26.5302 8.69879C26.5095 8.68798 26.4826 8.67957 26.4704 8.67957C26.4569 8.67957 26.4288 8.66636 26.4056 8.64835C26.3702 8.62193 26.3653 8.61112 26.3653 8.56428C26.3653 8.53546 26.358 8.49342 26.3495 8.47181C26.3275 8.42137 26.2456 8.35051 26.1882 8.3313C26.1443 8.31688 26.0502 8.31929 26.0111 8.3361C25.9965 8.3421 25.9928 8.3337 25.9965 8.29046C26.0038 8.2076 25.9549 8.11272 25.8817 8.06829C25.7888 8.00944 25.718 8.00824 25.5934 8.06108C25.5751 8.06829 25.5714 8.06348 25.5714 8.03226C25.5714 7.90255 25.4529 7.79687 25.3088 7.79807C25.227 7.79927 25.1806 7.81849 25.1268 7.87253L25.0926 7.90976L25.0535 7.85331C24.9473 7.69719 24.6969 7.70439 24.6114 7.86532L24.5943 7.89895L24.5515 7.85211C24.5271 7.82689 24.4892 7.79687 24.4673 7.78606C24.4123 7.76084 24.3073 7.76204 24.245 7.78966C24.1876 7.81488 24.1228 7.88814 24.1106 7.93858L24.1033 7.97341L24.0715 7.94218C23.9958 7.87253 23.8639 7.85451 23.7662 7.90015C23.7027 7.93138 23.644 8.00463 23.6343 8.06829L23.6269 8.11392L23.5781 8.07429C23.5524 8.05147 23.5072 8.02745 23.4791 8.02025L23.4278 8.00584L23.4059 7.91216C23.3802 7.79807 23.3118 7.66236 23.2288 7.55908C23.1665 7.48342 23.0272 7.36813 22.9491 7.3297C22.8648 7.28886 22.7463 6.9598 22.7182 6.69439L22.7097 6.61152L22.7695 6.61993C23.0126 6.65115 23.1994 6.7052 23.3594 6.78806C23.4156 6.81809 23.4584 6.8349 23.4547 6.82649C23.4523 6.81929 23.4364 6.76284 23.4205 6.704C23.3729 6.52025 23.3863 6.25003 23.4523 6.02906C23.4596 6.00624 23.4511 6.00864 23.3582 6.05548C23.1982 6.13834 22.9723 6.20079 22.7695 6.22121L22.7109 6.22721L22.7194 6.15876C22.7426 5.96541 22.8147 5.72521 22.8916 5.5823C22.9136 5.53907 22.9307 5.50304 22.9283 5.50063C22.9258 5.49823 22.8782 5.50784 22.822 5.52345C22.7341 5.54627 22.6901 5.55107 22.5118 5.55107C22.3054 5.55107 22.2944 5.54987 22.1319 5.49943L22.0928 5.48742L22.1515 5.60992ZM20.7603 8.72641C20.9789 8.76964 21.2965 8.89575 21.2965 8.93898C21.2965 8.94979 21.2757 8.94018 21.2415 8.91376C21.1084 8.81408 20.9215 8.85251 20.847 8.99543L20.8165 9.05187L20.7652 9.00503C20.654 8.90415 20.5136 8.90896 20.4024 9.01704L20.345 9.07349L20.3181 9.03506C20.2644 8.957 20.1532 8.91016 20.0629 8.92577C20.0116 8.93538 19.9224 8.98462 19.9041 9.01344C19.8931 9.03266 19.8906 9.03266 19.8797 9.01344C19.8467 8.9594 19.7966 8.91376 19.7429 8.88974L19.6842 8.86332L19.7746 8.82009C19.876 8.77205 19.9981 8.73242 20.1264 8.7084C20.251 8.68558 20.6027 8.69519 20.7603 8.72641ZM24.9021 8.7096C25.0352 8.73242 25.1488 8.76724 25.2624 8.82009L25.3528 8.86212L25.2942 8.88974C25.2404 8.91376 25.1891 8.9594 25.1561 9.01344C25.1451 9.03266 25.1427 9.03266 25.1317 9.01344C25.1134 8.98462 25.0242 8.93538 24.9729 8.92577C24.8825 8.91016 24.7714 8.957 24.7177 9.03506L24.6908 9.07349L24.6334 9.01704C24.5222 8.90896 24.3818 8.90415 24.2706 9.00503L24.2193 9.05187L24.1888 8.99543C24.1143 8.85251 23.9274 8.81408 23.7943 8.91376C23.7601 8.94018 23.7393 8.94979 23.7393 8.93898C23.7393 8.90175 23.9946 8.79246 24.1973 8.74443C24.4233 8.69158 24.7115 8.67717 24.9021 8.7096ZM17.5651 9.36412C17.6872 9.37493 18.0109 9.42056 18.0194 9.42897C18.0207 9.43017 18.0011 9.49022 17.9755 9.56228C17.8826 9.81928 17.8448 10.0787 17.8558 10.3549C17.8704 10.6684 17.9242 10.9038 18.0842 11.3397C18.2088 11.6784 18.2662 11.8609 18.2894 12.0026L18.3114 12.1251L18.6094 12.3209C18.8439 12.4746 19.1053 12.6523 19.1456 12.686C19.148 12.6884 19.1468 12.7016 19.1431 12.7172C19.1358 12.7424 19.1297 12.7448 19.0625 12.7412L18.988 12.7364L19.0112 12.8013C19.0589 12.937 19.1627 13.1195 19.2897 13.2889L19.3557 13.3765L19.2922 13.3441C19.2042 13.3009 19.1431 13.2804 19.0442 13.2612L18.9612 13.2456L18.9685 13.2949C18.9734 13.3225 18.9905 13.3741 19.0076 13.4102L19.0369 13.475L19.0088 13.5062C18.9575 13.5603 18.9416 13.5939 18.9086 13.7212L18.8781 13.8449L18.9697 13.9578C19.0589 14.0683 19.159 14.1583 19.2079 14.174C19.2274 14.18 19.2323 14.192 19.2323 14.2412C19.2323 14.3157 19.2555 14.4081 19.2738 14.4081C19.2946 14.4081 19.4155 14.3505 19.479 14.3109C19.5242 14.282 19.545 14.276 19.5743 14.282C19.5938 14.2869 19.6109 14.2965 19.6109 14.3049C19.6109 14.3277 19.5218 14.4574 19.4815 14.4946C19.3728 14.5931 19.2128 14.6183 19.0894 14.5583C18.9831 14.5054 18.8866 14.3853 18.8427 14.2496C18.8305 14.2124 18.8317 14.1992 18.8476 14.1692C18.8976 14.0743 18.8805 13.9518 18.8073 13.8665C18.7498 13.8017 18.6839 13.7716 18.5911 13.7716C18.4982 13.7716 18.4127 13.8161 18.3602 13.8893C18.3138 13.9542 18.3016 14.0683 18.3334 14.1499C18.3553 14.2052 18.4298 14.2808 18.4836 14.3013C18.5092 14.3109 18.5129 14.3181 18.5068 14.3457C18.4934 14.3973 18.4201 14.5066 18.3724 14.5451C18.3224 14.5859 18.2283 14.6003 18.1697 14.5763C18.1013 14.5487 18.0231 14.4442 17.9791 14.3217C17.9633 14.2748 17.9633 14.2748 17.9901 14.2832C18.0048 14.2869 18.0365 14.3013 18.0598 14.3121C18.1062 14.3349 18.348 14.4202 18.3663 14.4202C18.3798 14.4202 18.3077 14.3193 18.2344 14.2328C18.1868 14.1776 18.1831 14.1668 18.1941 14.1391C18.2124 14.0911 18.2088 14.0298 18.1831 13.9242C18.1636 13.8437 18.1526 13.8233 18.1001 13.768C18.0671 13.7344 18.0182 13.6732 17.9901 13.6335C17.9352 13.5531 17.8717 13.487 17.8387 13.4774C17.8277 13.4738 17.8106 13.4546 17.802 13.4342C17.7947 13.4138 17.7654 13.3645 17.7397 13.3249L17.6921 13.2516L17.6396 13.2588C17.57 13.2684 17.4625 13.3093 17.4063 13.3453C17.3819 13.3621 17.3477 13.3753 17.3281 13.3753C17.2988 13.3753 17.2915 13.3669 17.2658 13.3057C17.25 13.2684 17.2194 13.2072 17.1987 13.17C17.1632 13.1099 17.1571 13.0859 17.1449 12.9598C17.1046 12.531 17.1009 12.22 17.1327 11.9162C17.14 11.8501 17.1461 11.7865 17.1474 11.7744C17.1498 11.7564 17.1266 11.7432 17.0338 11.7108C16.4939 11.5198 16.1055 11.1499 15.9626 10.6888C15.9333 10.5939 15.9308 10.5639 15.9296 10.3969C15.9296 10.176 15.9455 10.0955 16.0249 9.93458C16.1153 9.75083 16.2716 9.60791 16.4866 9.50824C16.7614 9.38213 17.1498 9.33049 17.5651 9.36412ZM28.1095 9.38213C28.5529 9.44939 28.8656 9.64154 29.0109 9.93458C29.0903 10.0955 29.1062 10.176 29.1062 10.3969C29.105 10.5651 29.1025 10.5939 29.072 10.6912C28.9303 11.1487 28.5394 11.521 28.002 11.7108C27.9092 11.7432 27.886 11.7564 27.8884 11.7744C27.8896 11.7865 27.8958 11.8501 27.9031 11.9162C27.9348 12.2176 27.9312 12.5503 27.8909 12.9658C27.8787 13.0847 27.8713 13.1111 27.8371 13.17C27.8164 13.2072 27.7858 13.2684 27.77 13.3057C27.7443 13.3669 27.737 13.3753 27.7077 13.3753C27.6881 13.3753 27.6539 13.3621 27.6295 13.3453C27.5733 13.3093 27.4658 13.2684 27.3962 13.2588L27.3437 13.2516L27.296 13.3249C27.2704 13.3645 27.2423 13.4126 27.2338 13.4318C27.2264 13.4498 27.1971 13.4786 27.1702 13.4954C27.1421 13.5122 27.0957 13.5615 27.0591 13.6155C27.0237 13.6648 26.9687 13.7344 26.9357 13.768C26.8832 13.8233 26.8722 13.8437 26.8527 13.9242C26.827 14.0298 26.8234 14.0911 26.8417 14.1391C26.8527 14.1668 26.849 14.1776 26.8014 14.2328C26.7281 14.3193 26.656 14.4202 26.6695 14.4202C26.689 14.4202 26.9186 14.3385 26.9883 14.3073C27.0249 14.2905 27.0566 14.2796 27.0603 14.282C27.0689 14.2905 27.0237 14.3985 26.9846 14.461C26.9321 14.5439 26.8649 14.5883 26.7904 14.5883C26.7574 14.5883 26.7147 14.5799 26.6963 14.5703C26.6182 14.5306 26.4887 14.3337 26.5266 14.3109C26.5351 14.3049 26.5485 14.3001 26.5559 14.3001C26.5632 14.3001 26.595 14.2784 26.6255 14.252C26.6976 14.1896 26.7244 14.1223 26.7171 14.0214C26.711 13.9218 26.6695 13.8569 26.5827 13.8077C26.463 13.7404 26.3177 13.7644 26.2285 13.8665C26.1553 13.9506 26.1382 14.0743 26.1882 14.1668C26.2041 14.1968 26.2041 14.2088 26.1894 14.2484C26.1382 14.3913 26.0429 14.5114 25.9439 14.5583C25.9146 14.5727 25.8597 14.5835 25.8059 14.5859C25.729 14.5907 25.7094 14.5871 25.6508 14.5595C25.5751 14.5222 25.4774 14.4238 25.4395 14.3457L25.4151 14.2941L25.4566 14.2832C25.492 14.2748 25.5067 14.2784 25.5568 14.3097C25.6203 14.3505 25.7412 14.4081 25.762 14.4081C25.7803 14.4081 25.8035 14.3157 25.8035 14.2412C25.8035 14.192 25.8084 14.18 25.8279 14.174C25.8768 14.1583 25.9769 14.0683 26.0661 13.9578L26.1577 13.8449L26.1308 13.7392C26.0978 13.6047 26.0807 13.5663 26.0356 13.5158L25.9989 13.4738L26.0294 13.4102C26.0453 13.3741 26.0624 13.3225 26.0673 13.2949L26.0746 13.2456L25.9916 13.2612C25.8926 13.2804 25.8316 13.3009 25.7436 13.3441L25.6801 13.3765L25.7461 13.2889C25.8731 13.1195 25.9769 12.937 26.0246 12.8013L26.0478 12.7364L25.9745 12.7412C25.9012 12.7448 25.889 12.7388 25.889 12.698C25.889 12.6788 26.0905 12.5359 26.4484 12.3029C26.5974 12.2056 26.7195 12.1239 26.7195 12.1215C26.7195 12.1191 26.7281 12.0699 26.7379 12.011C26.7647 11.8597 26.816 11.6964 26.9321 11.3841C27.0847 10.9746 27.1446 10.756 27.1715 10.4942C27.2044 10.17 27.1727 9.89374 27.0676 9.5863C27.0383 9.50103 27.0151 9.42897 27.0163 9.42897C27.0237 9.42177 27.3449 9.37373 27.4463 9.36532C27.6112 9.34971 27.9544 9.35932 28.1095 9.38213ZM21.8632 9.65595C21.9182 9.83129 21.9365 9.95499 21.9365 10.1628C21.9365 10.3873 21.9157 10.5098 21.8449 10.7272C21.7167 11.1115 21.4663 11.4922 21.1499 11.7792C21.0327 11.8849 21.0278 11.8921 21.0485 11.9114C21.0608 11.9222 21.1536 11.9966 21.2562 12.0747C21.454 12.2272 21.7179 12.4518 21.9072 12.6295L22.0232 12.7376L21.9597 12.7388C21.8962 12.7388 21.895 12.7388 21.895 12.776C21.895 12.8949 22 13.1387 22.1454 13.3561L22.1686 13.3897L22.0953 13.3537C22.0098 13.3117 21.8815 13.272 21.7802 13.2564L21.7093 13.2468L21.7154 13.3321C21.7203 13.3789 21.7264 13.4306 21.7289 13.4474C21.735 13.4726 21.7264 13.4834 21.6849 13.5134C21.6214 13.5579 21.5591 13.6383 21.4968 13.7536L21.4492 13.8413L21.5078 13.9254C21.5896 14.0443 21.6568 14.1151 21.7179 14.1511L21.7704 14.1812L21.7643 14.2965L21.757 14.4118L21.796 14.4045C21.8632 14.3913 22.0806 14.3025 22.1649 14.2544L22.2455 14.2076L22.2895 14.2328C22.3139 14.2472 22.3347 14.2628 22.3347 14.2688C22.3347 14.2917 22.2577 14.3961 22.2077 14.4418C22.0867 14.5511 21.9646 14.5931 21.7863 14.5859C21.6812 14.5823 21.658 14.5775 21.5737 14.5379C21.4699 14.4886 21.382 14.4118 21.327 14.3205L21.2928 14.2628L21.3185 14.2364C21.415 14.1355 21.4174 13.9674 21.3234 13.8653C21.2635 13.8005 21.1988 13.7716 21.1072 13.7716C20.8653 13.7716 20.7395 14.0659 20.9093 14.2376L20.9472 14.276L20.924 14.3217C20.8824 14.3985 20.7676 14.5018 20.6772 14.5427C20.6076 14.5751 20.5759 14.5823 20.4806 14.5859C20.3853 14.5907 20.3548 14.5871 20.2913 14.5643C20.1496 14.5126 20.0384 14.4142 19.9749 14.2808L19.9383 14.204L19.9664 14.1812C19.9945 14.1595 19.9945 14.1595 20.0739 14.2124C20.1716 14.2784 20.3084 14.3469 20.4268 14.3889L20.5172 14.4202L20.5087 14.3697C20.5038 14.3409 20.4891 14.2869 20.4769 14.2484L20.4525 14.1788L20.4879 14.1499C20.5319 14.1139 20.5783 14.0286 20.6137 13.9194L20.6418 13.8317L20.5722 13.732C20.4818 13.6011 20.4183 13.5302 20.3633 13.5014C20.3206 13.4786 20.3194 13.4762 20.3181 13.3993C20.3157 13.2768 20.3059 13.248 20.2705 13.2528C20.1923 13.2624 20.091 13.2997 20.025 13.3405C19.9859 13.3657 19.9529 13.3825 19.9529 13.3765C19.9529 13.3717 19.9639 13.3369 19.9761 13.2997C20.0274 13.1543 20.0592 12.9214 20.0445 12.8037L20.036 12.7364L19.9652 12.7412C19.9163 12.7448 19.8955 12.7424 19.9016 12.734C20.0274 12.525 20.2278 12.3077 20.4024 12.1864C20.4439 12.1576 20.4781 12.1275 20.4781 12.1203C20.4781 12.1131 20.4195 12.0699 20.3475 12.0242C19.5132 11.4922 19.0784 10.9458 18.9819 10.3081C18.9502 10.0967 18.9636 9.8409 19.0137 9.69198C19.0283 9.64875 19.0467 9.64394 19.1224 9.66436C19.1908 9.68237 19.5169 9.73402 19.7087 9.75683C19.9273 9.78205 20.4256 9.78566 20.6552 9.76164C20.9899 9.72921 21.4162 9.64514 21.6934 9.55868C21.8241 9.51784 21.818 9.51424 21.8632 9.65595ZM23.4181 9.58029C23.8847 9.7148 24.3402 9.77845 24.8386 9.77725C25.1964 9.77725 25.4456 9.75323 25.8255 9.68117C25.9146 9.66436 25.9952 9.65235 26.0038 9.65595C26.0123 9.65956 26.0294 9.70759 26.0429 9.76284C26.0771 9.91056 26.0746 10.236 26.038 10.4054C25.9097 10.9878 25.5152 11.4742 24.769 11.9666C24.6529 12.0435 24.5576 12.1119 24.5576 12.1203C24.5576 12.1275 24.5833 12.1527 24.6163 12.1756C24.7164 12.2464 24.8544 12.3713 24.9302 12.4614C25.001 12.5455 25.1317 12.7244 25.1317 12.7376C25.1317 12.7412 25.1024 12.7424 25.0658 12.7412L24.9998 12.7364L24.9912 12.8049C24.9766 12.9214 25.0083 13.1543 25.0596 13.2997C25.0719 13.3369 25.0829 13.3717 25.0829 13.3765C25.0829 13.3825 25.0499 13.3657 25.0108 13.3405C24.9448 13.2997 24.8435 13.2624 24.7653 13.2528C24.7299 13.248 24.7201 13.2768 24.7177 13.3993C24.7164 13.4762 24.7152 13.4786 24.6725 13.5014C24.6175 13.5302 24.554 13.6011 24.4636 13.732L24.394 13.8317L24.4221 13.9194C24.4575 14.0286 24.5039 14.1139 24.5479 14.1499L24.5833 14.1788L24.5589 14.2484C24.5467 14.2869 24.532 14.3409 24.5271 14.3697L24.5186 14.4202L24.6089 14.3889C24.7274 14.3469 24.8642 14.2784 24.9632 14.2112C25.0401 14.1608 25.045 14.1583 25.0633 14.1788C25.0902 14.2076 25.089 14.2172 25.045 14.3025C24.9949 14.4009 24.9009 14.4898 24.7958 14.5415C24.714 14.5811 24.7054 14.5823 24.5699 14.5823C24.4392 14.5823 24.4245 14.5799 24.3561 14.5475C24.2706 14.5054 24.1802 14.4262 24.1228 14.3421L24.0813 14.2832L24.124 14.24C24.2511 14.1115 24.2242 13.9025 24.0691 13.8101C23.8773 13.6972 23.6416 13.8317 23.6416 14.0539C23.6416 14.1055 23.6856 14.2112 23.7185 14.2376C23.7369 14.2532 23.7369 14.258 23.7124 14.3037C23.677 14.3721 23.5671 14.4826 23.4975 14.5198C23.3961 14.5739 23.3094 14.5919 23.1787 14.5859C23.0797 14.5811 23.048 14.5751 22.9796 14.5427C22.8855 14.5006 22.7817 14.4106 22.7243 14.3217C22.7035 14.2893 22.6877 14.2616 22.6901 14.2592C22.6926 14.258 22.7158 14.2448 22.7414 14.2304L22.7878 14.204L22.8599 14.2448C22.9881 14.3193 23.2532 14.4214 23.2703 14.4045C23.2825 14.3937 23.2825 14.3013 23.2715 14.2388L23.2617 14.1824L23.3143 14.1523C23.3814 14.1139 23.4511 14.0419 23.5304 13.929L23.5927 13.8401L23.5536 13.7728C23.4584 13.6059 23.3973 13.5314 23.3155 13.4846C23.3045 13.4786 23.3045 13.4546 23.3204 13.3789C23.3472 13.242 23.3472 13.242 23.23 13.2624C23.1188 13.2828 23.0101 13.3177 22.9344 13.3585C22.9051 13.3741 22.8794 13.3861 22.877 13.3837C22.8758 13.3825 22.899 13.3429 22.9295 13.2973C23.0358 13.1339 23.1249 12.925 23.1457 12.7893L23.153 12.7388H23.0138L23.0565 12.6956C23.2043 12.5431 23.7857 12.0555 23.9506 11.9462C23.975 11.9294 23.9982 11.9102 24.0007 11.9029C24.0043 11.8945 23.9518 11.8393 23.8847 11.778C23.5707 11.4922 23.3179 11.1151 23.1909 10.738C23.0578 10.3477 23.0578 9.95739 23.1921 9.5887C23.2117 9.53466 23.2226 9.52024 23.2373 9.52625C23.2483 9.53105 23.3289 9.55507 23.4181 9.58029Z" fill="#242424"/>
</svg>
